<?xml version="1.0" encoding="UTF-8" standalone="no"?>
<!-- Created with Inkscape (http://www.inkscape.org/) -->

<svg
   width="64mm"
   height="88mm"
   viewBox="0 0 63.999999 88.000002"
   version="1.1"
   id="svg5"
   xml:space="preserve"
   inkscape:version="1.2.2 (b0a8486, 2022-12-01)"
   sodipodi:docname="COUPLES SUITE.svg"
   inkscape:export-filename="COUPLES SUITE.png"
   inkscape:export-xdpi="96"
   inkscape:export-ydpi="96"
   xmlns:inkscape="http://www.inkscape.org/namespaces/inkscape"
   xmlns:sodipodi="http://sodipodi.sourceforge.net/DTD/sodipodi-0.dtd"
   xmlns="http://www.w3.org/2000/svg"
   xmlns:svg="http://www.w3.org/2000/svg"><sodipodi:namedview
     id="namedview7"
     pagecolor="#ffffff"
     bordercolor="#000000"
     borderopacity="0.25"
     inkscape:showpageshadow="2"
     inkscape:pageopacity="0.0"
     inkscape:pagecheckerboard="0"
     inkscape:deskcolor="#d1d1d1"
     inkscape:document-units="mm"
     showgrid="true"
     showguides="false"
     inkscape:zoom="0.88544882"
     inkscape:cx="1358.0683"
     inkscape:cy="1342.2571"
     inkscape:window-width="1440"
     inkscape:window-height="847"
     inkscape:window-x="0"
     inkscape:window-y="25"
     inkscape:window-maximized="1"
     inkscape:current-layer="g1945"><inkscape:grid
       type="xygrid"
       id="grid236"
       originx="0"
       originy="0"
       units="mm"
       spacingx="2"
       spacingy="2" /></sodipodi:namedview><defs
     id="defs2" /><g
     inkscape:label="Layer 1"
     inkscape:groupmode="layer"
     id="layer1"
     transform="translate(-139.99999)"><path
       id="rect20122"
       style="fill:#f1f6ef;fill-rule:evenodd;stroke-width:4.99999;stroke-linecap:round;stroke-linejoin:round;paint-order:fill markers stroke"
       d="m 140,0 h 64 v 88 h -64 z" /><path
       id="rect19070"
       style="fill:#d64a4d;fill-rule:evenodd;stroke-width:4.99999;stroke-linecap:round;stroke-linejoin:round;paint-order:fill markers stroke"
       d="m 139.80699,0 h 64 v 20 h -64 z" /><g
       aria-label="Action"
       id="text21750"
       style="font-size:11.0292px;line-height:1.3;font-family:NinfaW00-Regular;-inkscape-font-specification:'NinfaW00-Regular, Normal';fill:#f1f6ef;fill-rule:evenodd;stroke-width:4.99998;stroke-linecap:round;stroke-linejoin:round;paint-order:fill markers stroke"><path
         d="m 159.82381,7.2427002 1.12498,3.3418478 h -2.37128 l 1.22424,-3.3418478 z m -0.70587,0.4852848 -2.24996,6.132235 h 0.54043 l 1.03675,-2.88965 h 2.61392 l 0.55146,1.588204 c 0.0772,0.231614 0.13235,0.441168 0.16544,0.617636 0.0221,0.187496 0.0551,0.419109 0.0993,0.68381 h 1.13601 l -2.4154,-7.2461842 c -0.0331,-0.088234 -0.0772,-0.1433796 -0.12132,-0.1874964 -0.0441,-0.044117 -0.12132,-0.066175 -0.22058,-0.066175 -0.0772,0 -0.19853,0.011029 -0.35294,0.022058 -0.15441,0.022058 -0.33087,0.044117 -0.51837,0.066175 -0.1875,0.033088 -0.37499,0.066175 -0.57352,0.099263 -0.19852,0.033088 -0.37499,0.066175 -0.51837,0.088234 l 0.0331,0.2316132 c 0.0441,0 0.0993,-0.011029 0.14338,-0.011029 0.0441,0 0.0993,-0.011029 0.14338,-0.011029 0.18749,0 0.3419,0.044117 0.45219,0.110292 0.1103,0.077204 0.16544,0.1874964 0.16544,0.330876 0,0.088234 -0.0441,0.2316132 -0.11029,0.441168 z"
         style="stroke-width:5"
         id="path1721" /><path
         d="m 167.18028,10.13235 c 0.24264,0 0.41911,-0.05515 0.54043,-0.1874959 0.12132,-0.1323504 0.1875,-0.27573 0.1875,-0.441168 0,-0.1544088 -0.0441,-0.2977884 -0.12133,-0.4521972 -0.0772,-0.1544088 -0.18749,-0.2867592 -0.3419,-0.4080804 -0.15441,-0.1213212 -0.35294,-0.2205839 -0.59558,-0.2977883 -0.24264,-0.066175 -0.51837,-0.110292 -0.83822,-0.110292 -0.44117,0 -0.81616,0.099263 -1.12498,0.2867591 -0.30881,0.1985256 -0.56248,0.441168 -0.76101,0.7389564 -0.19853,0.2977884 -0.34191,0.6286644 -0.43014,0.9926283 -0.0882,0.363963 -0.13235,0.716898 -0.13235,1.069832 0,0.40808 0.0441,0.772044 0.13235,1.091891 0.0882,0.330876 0.23161,0.606606 0.41911,0.838219 0.1875,0.231613 0.43014,0.40808 0.7169,0.529402 0.28676,0.13235 0.63969,0.187496 1.03674,0.187496 0.41911,0 0.80513,-0.0772 1.15807,-0.242642 0.35293,-0.165438 0.69484,-0.374993 1.03674,-0.617636 l -0.14338,-0.2647 c -0.2647,0.154408 -0.5294,0.286759 -0.81616,0.397051 -0.28676,0.110292 -0.57351,0.165438 -0.8713,0.165438 -0.2647,0 -0.49632,-0.03309 -0.69484,-0.110292 -0.20956,-0.06618 -0.38602,-0.187497 -0.5294,-0.363964 -0.15441,-0.176467 -0.26471,-0.397051 -0.34191,-0.672781 -0.0882,-0.27573 -0.12132,-0.617635 -0.12132,-1.025716 0,-0.397051 0.0221,-0.761014 0.0772,-1.09189 0.0551,-0.3308763 0.14338,-0.6286647 0.2647,-0.8713071 0.1103,-0.2426424 0.26471,-0.4301388 0.44117,-0.5624892 0.17647,-0.1323504 0.39705,-0.1985256 0.65073,-0.1985256 0.19852,0 0.36396,0.055146 0.50734,0.1433796 0.14338,0.099263 0.2647,0.220584 0.36396,0.3749928 0.0882,0.1544088 0.16544,0.330876 0.22059,0.5183724 0.0441,0.1985256 0.0882,0.386022 0.11029,0.5845471 z"
         style="stroke-width:5"
         id="path1723" /><path
         d="m 170.37873,13.970512 c 0.15441,0 0.30882,-0.02206 0.47426,-0.0772 0.16543,-0.05515 0.31984,-0.121322 0.46322,-0.187497 0.15441,-0.0772 0.31985,-0.165438 0.48529,-0.264701 l -0.0772,-0.220584 c -0.0441,0.01103 -0.0882,0.02206 -0.15441,0.02206 -0.0662,0.01103 -0.14338,0.02206 -0.20955,0.02206 -0.0772,0 -0.14338,0.01103 -0.20956,0.01103 -0.0662,0 -0.11029,0 -0.13235,0 -0.24264,0 -0.44116,-0.03309 -0.57352,-0.110292 -0.14337,-0.0772 -0.20955,-0.253671 -0.20955,-0.54043 l 0.0441,-3.7940451 h 1.36762 V 8.444883 h -1.36762 l 0.0331,-1.3124748 -0.25367,-0.011029 -1.38968,1.4889419 0.0441,0.220584 h 0.66175 l -0.0662,3.9153659 c 0,0.165438 0.011,0.319847 0.0441,0.463226 0.0221,0.154409 0.0772,0.286759 0.16544,0.397051 0.0772,0.110292 0.1875,0.198526 0.31985,0.264701 0.13235,0.06617 0.31985,0.09926 0.54043,0.09926 z"
         style="stroke-width:5"
         id="path1725" /><path
         d="m 173.75364,8.5882625 c 0,-0.1102919 -0.0221,-0.1874963 -0.0551,-0.2536715 -0.0441,-0.066175 -0.12132,-0.099263 -0.23162,-0.099263 -0.11029,0 -0.23161,0.022058 -0.37499,0.055146 -0.15441,0.033088 -0.30882,0.077204 -0.46323,0.1213212 -0.16543,0.055146 -0.33087,0.1102919 -0.48528,0.1764671 -0.16544,0.066175 -0.30882,0.1213212 -0.43014,0.1764672 l 0.0441,0.220584 c 0.0662,-0.011029 0.15441,-0.022058 0.2647,-0.033088 0.11029,-0.011029 0.20955,-0.022058 0.31985,-0.022058 0.11029,0 0.20955,0.033088 0.27573,0.077204 0.0662,0.044117 0.12132,0.110292 0.1544,0.1985256 0.0221,0.088234 0.0441,0.1985256 0.0551,0.3198468 0,0.1213212 0.011,0.2536716 0.011,0.386022 v 2.3381901 c 0,0.121321 -0.011,0.253671 -0.011,0.386022 0,0.143379 -0.011,0.286759 -0.0221,0.430139 -0.011,0.154408 -0.0221,0.297788 -0.0331,0.430138 -0.011,0.132351 -0.0221,0.253672 -0.0441,0.363964 h 0.99263 V 9.9007373 c 0,-0.2095548 0,-0.4191096 0.011,-0.6286644 0.011,-0.2095548 0.0221,-0.441168 0.0221,-0.6838104 z m 0.0662,-1.8970223 c 0,-0.1874964 -0.0551,-0.3419052 -0.16544,-0.4742556 -0.11029,-0.1213212 -0.25367,-0.1874964 -0.44117,-0.1874964 -0.0662,0 -0.13235,0.011029 -0.19852,0.033088 -0.0772,0.022058 -0.14338,0.066175 -0.20956,0.110292 -0.0662,0.055146 -0.13235,0.1213212 -0.17647,0.2095548 -0.0441,0.088234 -0.0662,0.1874964 -0.0662,0.2977884 0,0.1985256 0.0551,0.3529344 0.17647,0.4632264 0.12132,0.1213212 0.27573,0.1764672 0.47425,0.1764672 0.0551,0 0.12132,-0.011029 0.1875,-0.044117 0.0662,-0.022058 0.13235,-0.066175 0.19852,-0.1213212 0.0662,-0.055146 0.1103,-0.1213212 0.15441,-0.1985256 0.0441,-0.077204 0.0662,-0.165438 0.0662,-0.2647008 z"
         style="stroke-width:5"
         id="path1727" /><path
         d="m 175.93741,11.10292 c 0,-0.264701 0.0221,-0.55146 0.0772,-0.860278 0.0551,-0.3088171 0.14338,-0.5845471 0.2647,-0.8492479 0.1103,-0.2536716 0.26471,-0.4632264 0.46323,-0.6286644 0.1875,-0.165438 0.41911,-0.2536716 0.70587,-0.2536716 0.2647,0 0.49631,0.077204 0.69484,0.2095548 0.1875,0.1433796 0.3419,0.330876 0.46323,0.5735184 0.12132,0.2426424 0.20955,0.5183724 0.2647,0.8271897 0.0551,0.308818 0.0882,0.639694 0.0882,0.981599 0,0.286759 -0.0331,0.573518 -0.0882,0.871307 -0.0551,0.308817 -0.14338,0.584547 -0.25368,0.838219 -0.12132,0.253672 -0.27573,0.463226 -0.47425,0.628664 -0.19853,0.165438 -0.43014,0.242643 -0.69484,0.242643 -0.28676,0 -0.51837,-0.06617 -0.70587,-0.198526 -0.19852,-0.13235 -0.35293,-0.308817 -0.46323,-0.540431 -0.12132,-0.231613 -0.20955,-0.507343 -0.2647,-0.81616 -0.0551,-0.308818 -0.0772,-0.650723 -0.0772,-1.025716 z m 4.02566,-0.220584 c 0,-0.463226 -0.0662,-0.860278 -0.17647,-1.1911535 -0.11029,-0.330876 -0.27573,-0.606606 -0.48529,-0.82719 -0.20955,-0.2095548 -0.46322,-0.3639636 -0.76101,-0.4742555 -0.29779,-0.099263 -0.62866,-0.1544088 -1.00366,-0.1544088 -0.38602,0 -0.73895,0.077204 -1.04777,0.2316132 -0.31985,0.1544087 -0.59558,0.3749927 -0.81616,0.6396935 -0.23161,0.27573 -0.40808,0.606606 -0.5294,0.9815991 -0.13235,0.374992 -0.1875,0.794102 -0.1875,1.23527 0,0.926453 0.19853,1.599234 0.61764,2.018344 0.40808,0.419109 0.99262,0.628664 1.76467,0.628664 0.37499,0 0.72792,-0.0772 1.0588,-0.231613 0.31985,-0.154409 0.59558,-0.363964 0.82719,-0.639694 0.23161,-0.27573 0.40808,-0.606606 0.54043,-0.981599 0.13235,-0.374992 0.19853,-0.794102 0.19853,-1.23527 z"
         style="stroke-width:5"
         id="path1729" /><path
         d="m 185.67618,12.327161 c 0,-0.187496 0,-0.40808 0.011,-0.661752 0.011,-0.242642 0.0221,-0.507343 0.0331,-0.772044 0.011,-0.264701 0.0221,-0.529401 0.0331,-0.794102 0.011,-0.2647009 0.0221,-0.5183725 0.0221,-0.7499857 0,-0.1323504 -0.0221,-0.27573 -0.0551,-0.4080804 -0.0331,-0.1323504 -0.0882,-0.2536716 -0.15441,-0.3639636 -0.0772,-0.099263 -0.16543,-0.1764671 -0.27573,-0.2426423 -0.11029,-0.066175 -0.24264,-0.099263 -0.39705,-0.099263 -0.2647,0 -0.5294,0.055146 -0.78307,0.165438 -0.25367,0.1102919 -0.49631,0.2426423 -0.7169,0.4191095 -0.22058,0.1764672 -0.43014,0.3749928 -0.61763,0.5955768 -0.1875,0.220584 -0.34191,0.4521972 -0.47426,0.6948397 l -0.0221,-0.01103 c 0.0441,-0.2647011 0.0662,-0.5404311 0.0882,-0.8271903 0.011,-0.2867592 0.022,-0.5073432 0.022,-0.6838104 0,-0.1102919 -0.022,-0.1874963 -0.0551,-0.2536715 -0.0441,-0.066175 -0.12132,-0.099263 -0.23162,-0.099263 -0.17646,0 -0.36396,0.033088 -0.56248,0.088234 -0.19853,0.055146 -0.38603,0.110292 -0.56249,0.1764671 -0.20956,0.088234 -0.41911,0.1764672 -0.62867,0.2647008 l 0.0441,0.220584 c 0.0662,-0.011029 0.15441,-0.022058 0.2647,-0.033088 0.11029,-0.011029 0.20955,-0.022058 0.31985,-0.022058 0.11029,0 0.20955,0.033088 0.27573,0.077204 0.0662,0.044117 0.12132,0.110292 0.15441,0.1985256 0.0221,0.088234 0.0441,0.1985256 0.0551,0.3198468 0,0.1213212 0.011,0.2536716 0.011,0.386022 v 2.4484829 c 0,0.242642 -0.011,0.496314 -0.0331,0.772044 -0.0221,0.27573 -0.0551,0.518372 -0.0772,0.727927 h 0.99263 V 11.511 c 0,-0.397051 0.0551,-0.749985 0.17646,-1.058803 0.12132,-0.308817 0.27573,-0.5735181 0.46323,-0.7941021 0.17647,-0.220584 0.38602,-0.386022 0.60661,-0.496314 0.22058,-0.110292 0.43013,-0.165438 0.62866,-0.165438 0.24264,0 0.40808,0.077204 0.50734,0.220584 0.0882,0.1544088 0.14338,0.3749928 0.14338,0.6838104 0,0.5294017 -0.0221,1.0918907 -0.0662,1.6764387 -0.0441,0.595576 -0.0551,1.180124 -0.0551,1.764672 0,0.419109 0.19853,0.628664 0.61764,0.628664 0.13235,0 0.2647,-0.02206 0.39705,-0.06617 0.13235,-0.04412 0.25367,-0.08823 0.37499,-0.154409 0.12132,-0.05515 0.23161,-0.121321 0.33088,-0.187496 0.0993,-0.06618 0.18749,-0.121322 0.2647,-0.165438 l -0.0772,-0.209555 c -0.0441,0.01103 -0.11029,0.02206 -0.22058,0.03309 -0.11029,0.02206 -0.22058,0.02206 -0.31985,0.02206 -0.19852,0 -0.33087,-0.0772 -0.37499,-0.231613 -0.0551,-0.154409 -0.0772,-0.374993 -0.0772,-0.683811 z"
         style="stroke-width:5"
         id="path1731" /></g></g></svg>
