<?xml version="1.0" encoding="UTF-8" standalone="no"?>
<!-- Created with Inkscape (http://www.inkscape.org/) -->

<svg
   width="64mm"
   height="88mm"
   viewBox="0 0 63.999999 88.000002"
   version="1.1"
   id="svg5"
   xml:space="preserve"
   inkscape:version="1.2.2 (b0a8486, 2022-12-01)"
   sodipodi:docname="COUPLES SUITE.svg"
   inkscape:export-filename="COUPLES SUITE.png"
   inkscape:export-xdpi="96"
   inkscape:export-ydpi="96"
   xmlns:inkscape="http://www.inkscape.org/namespaces/inkscape"
   xmlns:sodipodi="http://sodipodi.sourceforge.net/DTD/sodipodi-0.dtd"
   xmlns="http://www.w3.org/2000/svg"
   xmlns:svg="http://www.w3.org/2000/svg"><sodipodi:namedview
     id="namedview7"
     pagecolor="#ffffff"
     bordercolor="#000000"
     borderopacity="0.25"
     inkscape:showpageshadow="2"
     inkscape:pageopacity="0.0"
     inkscape:pagecheckerboard="0"
     inkscape:deskcolor="#d1d1d1"
     inkscape:document-units="mm"
     showgrid="true"
     showguides="false"
     inkscape:zoom="0.88544882"
     inkscape:cx="1358.0683"
     inkscape:cy="1342.2571"
     inkscape:window-width="1440"
     inkscape:window-height="847"
     inkscape:window-x="0"
     inkscape:window-y="25"
     inkscape:window-maximized="1"
     inkscape:current-layer="g1945"><inkscape:grid
       type="xygrid"
       id="grid236"
       originx="0"
       originy="0"
       units="mm"
       spacingx="2"
       spacingy="2" /></sodipodi:namedview><defs
     id="defs2"><inkscape:path-effect
       effect="fillet_chamfer"
       id="path-effect17017"
       is_visible="true"
       lpeversion="1"
       nodesatellites_param="F,0,0,1,0,0,0,1 @ F,0,0,1,0,0,0,1 @ F,0,0,1,0,0.55952464,0,1 @ F,0,0,1,0,0,0,1"
       unit="px"
       method="auto"
       mode="F"
       radius="0"
       chamfer_steps="1"
       flexible="false"
       use_knot_distance="true"
       apply_no_radius="true"
       apply_with_radius="true"
       only_selected="false"
       hide_knots="false" /><inkscape:path-effect
       effect="fillet_chamfer"
       id="path-effect17001"
       is_visible="true"
       lpeversion="1"
       nodesatellites_param="F,0,0,1,0,0,0,1 @ F,0,0,1,0,0,0,1 @ F,0,0,1,0,0.55952464,0,1 @ F,0,0,1,0,0,0,1"
       unit="px"
       method="auto"
       mode="F"
       radius="0"
       chamfer_steps="1"
       flexible="false"
       use_knot_distance="true"
       apply_no_radius="true"
       apply_with_radius="true"
       only_selected="false"
       hide_knots="false" /><clipPath
       clipPathUnits="userSpaceOnUse"
       id="clipPath18051"><rect
         style="fill:#000000;fill-opacity:1;fill-rule:evenodd;stroke:none;stroke-width:4.99996;stroke-linecap:round;stroke-linejoin:round;paint-order:fill markers stroke"
         id="rect18053"
         width="64"
         height="88"
         x="0"
         y="0" /></clipPath></defs><g
     inkscape:label="Layer 1"
     inkscape:groupmode="layer"
     id="layer1"><g
       id="g2126"><g
         id="g18049"
         clip-path="url(#clipPath18051)"><path
           id="rect7810"
           style="fill:#d64a4d;fill-rule:evenodd;stroke:none;stroke-width:4.99998;stroke-linecap:round;stroke-linejoin:round;paint-order:fill markers stroke"
           d="m 40,40.000094 h 20 l -10,10 z"
           sodipodi:nodetypes="cccc" /><path
           id="path8705"
           style="fill:#213653;fill-opacity:1;fill-rule:evenodd;stroke:none;stroke-width:4.99998;stroke-linecap:round;stroke-linejoin:round;paint-order:fill markers stroke"
           d="M 60,40.000094 V 60.000096 L 50,50.000094 Z"
           sodipodi:nodetypes="cccc" /><path
           id="path8707"
           style="fill:#f1f6ef;fill-opacity:1;fill-rule:evenodd;stroke:none;stroke-width:4.99998;stroke-linecap:round;stroke-linejoin:round;paint-order:fill markers stroke"
           d="M 60,60.000094 H 40 l 10,-10 z"
           sodipodi:nodetypes="cccc" /><path
           id="path8709"
           style="fill:#ef7f67;fill-opacity:1;fill-rule:evenodd;stroke:none;stroke-width:4.99998;stroke-linecap:round;stroke-linejoin:round;paint-order:fill markers stroke"
           d="m 40,60.000094 v -20 l 10,10 z"
           sodipodi:nodetypes="cccc" /><rect
           style="fill:#213653;fill-opacity:1;fill-rule:evenodd;stroke:none;stroke-width:4.99998;stroke-linecap:round;stroke-linejoin:round;paint-order:fill markers stroke"
           id="rect13796"
           width="10"
           height="10.000004"
           x="20"
           y="9.3825722e-05" /><rect
           style="fill:#ef7f67;fill-opacity:1;fill-rule:evenodd;stroke:none;stroke-width:4.99998;stroke-linecap:round;stroke-linejoin:round;paint-order:fill markers stroke"
           id="rect13798"
           width="10"
           height="10.000004"
           x="20"
           y="10.000086" /><rect
           style="fill:#213653;fill-opacity:1;fill-rule:evenodd;stroke:none;stroke-width:4.99998;stroke-linecap:round;stroke-linejoin:round;paint-order:fill markers stroke"
           id="rect13800"
           width="10"
           height="10.000004"
           x="30"
           y="9.3825722e-05" /><rect
           style="fill:#ef7f67;fill-opacity:1;fill-rule:evenodd;stroke:none;stroke-width:4.99998;stroke-linecap:round;stroke-linejoin:round;paint-order:fill markers stroke"
           id="rect13802"
           width="10"
           height="10.000004"
           x="30"
           y="10.000086" /><circle
           style="fill:#f1f6ef;fill-opacity:1;fill-rule:evenodd;stroke:none;stroke-width:4.99998;stroke-linecap:round;stroke-linejoin:round;paint-order:fill markers stroke"
           id="circle13794"
           cx="30"
           cy="10.000093"
           r="10" /><path
           id="rect13806"
           style="fill:#d64a4d;fill-opacity:1;fill-rule:evenodd;stroke:none;stroke-width:4.99998;stroke-linecap:round;stroke-linejoin:round;paint-order:fill markers stroke"
           d="M 29.999952,-9.3816723e-5 V 10.000329 H 40.000374 A 10,10 0 0 0 29.999952,-9.3816723e-5 Z" /><path
           id="rect13811"
           style="fill:#b1d7da;fill-opacity:1;fill-rule:evenodd;stroke:none;stroke-width:4.99998;stroke-linecap:round;stroke-linejoin:round;paint-order:fill markers stroke"
           d="m 29.999952,10.000329 v 9.99939 a 10,10 0 0 0 10.000422,-9.99939 z" /><path
           id="rect13816"
           style="fill:#f1f6ef;fill-opacity:1;fill-rule:evenodd;stroke:none;stroke-width:4.99998;stroke-linecap:round;stroke-linejoin:round;paint-order:fill markers stroke"
           d="m 19.999528,10.000329 a 10,10 0 0 0 10.000424,9.99939 v -9.99939 z" /><path
           id="rect13821"
           style="fill:#ef7f67;fill-opacity:1;fill-rule:evenodd;stroke:none;stroke-width:4.99998;stroke-linecap:round;stroke-linejoin:round;paint-order:fill markers stroke"
           d="M 29.999952,-9.3816723e-5 A 10,10 0 0 0 19.999528,10.000329 h 10.000424 z" /><rect
           style="fill:#f1f6ef;fill-opacity:1;fill-rule:evenodd;stroke:none;stroke-width:4.99998;stroke-linecap:round;stroke-linejoin:round;paint-order:fill markers stroke"
           id="rect13858"
           width="20"
           height="20.000008"
           x="60"
           y="-39.999973"
           transform="scale(1,-1)" /><path
           id="path13860"
           style="fill:#213653;fill-opacity:1;fill-rule:evenodd;stroke:none;stroke-width:4.99998;stroke-linecap:round;stroke-linejoin:round;paint-order:fill markers stroke"
           d="M 59.999698,39.999838 V 20.000026 H 79.999512 A 20,20 0 0 1 59.999698,39.999838 Z" /><path
           id="path13862"
           style="fill:#f1f6ef;fill-opacity:1;fill-rule:evenodd;stroke:none;stroke-width:5;stroke-linecap:round;stroke-linejoin:round;paint-order:fill markers stroke"
           d="M 59.999698,30.000448 V 20.000026 H 70.000122 A 10,10 0 0 1 59.999698,30.000448 Z" /><rect
           style="fill:#213653;fill-opacity:1;fill-rule:evenodd;stroke:none;stroke-width:4.99998;stroke-linecap:round;stroke-linejoin:round;paint-order:fill markers stroke"
           id="rect13864"
           width="20"
           height="20.000008"
           x="-60"
           y="-40.000103"
           transform="scale(-1)" /><path
           id="path13866"
           style="fill:#b1d7da;fill-opacity:1;fill-rule:evenodd;stroke:none;stroke-width:4.99998;stroke-linecap:round;stroke-linejoin:round;paint-order:fill markers stroke"
           d="M 60.000302,39.99997 V 20.000158 H 40.000488 A 20,20 0 0 0 60.000302,39.99997 Z" /><path
           id="path13868"
           style="fill:#d64a4d;fill-opacity:1;fill-rule:evenodd;stroke:none;stroke-width:5;stroke-linecap:round;stroke-linejoin:round;paint-order:fill markers stroke"
           d="M 60.000302,30.00058 V 20.000158 H 49.999878 A 10,10 0 0 0 60.000302,30.00058 Z" /><rect
           style="fill:#b1d7da;fill-opacity:1;fill-rule:evenodd;stroke:none;stroke-width:4.99998;stroke-linecap:round;stroke-linejoin:round;paint-order:fill markers stroke"
           id="rect13913"
           width="10"
           height="10.000004"
           x="-1.1191048e-13"
           y="60" /><path
           id="path13915"
           style="fill:#213653;fill-opacity:1;fill-rule:evenodd;stroke-width:4.99998;stroke-linecap:round;stroke-linejoin:round;paint-order:fill markers stroke"
           d="M 0,59.999996 10,70 H 0 Z"
           sodipodi:nodetypes="cccc" /><rect
           style="fill:#b1d7da;fill-opacity:1;fill-rule:evenodd;stroke:none;stroke-width:4.99998;stroke-linecap:round;stroke-linejoin:round;paint-order:fill markers stroke"
           id="rect13917"
           width="10"
           height="10.000004"
           x="-1.1191048e-13"
           y="69.999992" /><path
           id="path13919"
           style="fill:#213653;fill-opacity:1;fill-rule:evenodd;stroke-width:4.99998;stroke-linecap:round;stroke-linejoin:round;paint-order:fill markers stroke"
           d="M 0,69.999992 10,79.999996 H 0 Z"
           sodipodi:nodetypes="cccc" /><rect
           style="fill:#b1d7da;fill-opacity:1;fill-rule:evenodd;stroke:none;stroke-width:4.99998;stroke-linecap:round;stroke-linejoin:round;paint-order:fill markers stroke"
           id="rect13921"
           width="10"
           height="10.000004"
           x="10"
           y="60" /><path
           id="path13923"
           style="fill:#213653;fill-opacity:1;fill-rule:evenodd;stroke-width:4.99998;stroke-linecap:round;stroke-linejoin:round;paint-order:fill markers stroke"
           d="M 10,59.999996 20,70 H 10 Z"
           sodipodi:nodetypes="cccc" /><rect
           style="fill:#b1d7da;fill-opacity:1;fill-rule:evenodd;stroke:none;stroke-width:4.99998;stroke-linecap:round;stroke-linejoin:round;paint-order:fill markers stroke"
           id="rect13925"
           width="10"
           height="10.000004"
           x="10"
           y="69.999992" /><path
           id="path13927"
           style="fill:#213653;fill-opacity:1;fill-rule:evenodd;stroke-width:4.99998;stroke-linecap:round;stroke-linejoin:round;paint-order:fill markers stroke"
           d="M 10,69.999992 20,79.999996 H 10 Z"
           sodipodi:nodetypes="cccc" /><rect
           style="fill:#d64a4d;fill-opacity:1;fill-rule:evenodd;stroke:none;stroke-width:4.99998;stroke-linecap:round;stroke-linejoin:round;paint-order:fill markers stroke"
           id="rect13929"
           width="10"
           height="10.000004"
           x="0"
           y="9.3825722e-05" /><path
           id="path13931"
           style="fill:#213653;fill-opacity:1;fill-rule:evenodd;stroke-width:4.99998;stroke-linecap:round;stroke-linejoin:round;paint-order:fill markers stroke"
           d="M 0,9.3772605e-5 10,10.000098 H 0 Z"
           sodipodi:nodetypes="cccc" /><rect
           style="fill:#b1d7da;fill-opacity:1;fill-rule:evenodd;stroke:none;stroke-width:4.99998;stroke-linecap:round;stroke-linejoin:round;paint-order:fill markers stroke"
           id="rect13933"
           width="10"
           height="10.000004"
           x="0"
           y="10.000093" /><path
           id="path13935"
           style="fill:#d64a4d;fill-opacity:1;fill-rule:evenodd;stroke-width:4.99998;stroke-linecap:round;stroke-linejoin:round;paint-order:fill markers stroke"
           d="M 0,10.00009 10,20.000094 H 0 Z"
           sodipodi:nodetypes="cccc" /><rect
           style="fill:#d64a4d;fill-opacity:1;fill-rule:evenodd;stroke:none;stroke-width:4.99998;stroke-linecap:round;stroke-linejoin:round;paint-order:fill markers stroke"
           id="rect13937"
           width="10"
           height="10.000004"
           x="10"
           y="9.3825722e-05" /><path
           id="path13939"
           style="fill:#213653;fill-opacity:1;fill-rule:evenodd;stroke-width:4.99998;stroke-linecap:round;stroke-linejoin:round;paint-order:fill markers stroke"
           d="M 10,9.3772605e-5 20,10.000098 H 10 Z"
           sodipodi:nodetypes="cccc" /><rect
           style="fill:#b1d7da;fill-opacity:1;fill-rule:evenodd;stroke:none;stroke-width:4.99998;stroke-linecap:round;stroke-linejoin:round;paint-order:fill markers stroke"
           id="rect13941"
           width="10"
           height="10.000004"
           x="10"
           y="10.000093" /><path
           id="path13943"
           style="fill:#d64a4d;fill-opacity:1;fill-rule:evenodd;stroke-width:4.99998;stroke-linecap:round;stroke-linejoin:round;paint-order:fill markers stroke"
           d="M 10,10.00009 20,20.000094 H 10 Z"
           sodipodi:nodetypes="cccc" /><rect
           style="fill:#b1d7da;fill-opacity:1;fill-rule:evenodd;stroke:none;stroke-width:4.99998;stroke-linecap:round;stroke-linejoin:round;paint-order:fill markers stroke"
           id="rect14014"
           width="10"
           height="10.000004"
           x="40"
           y="9.3825722e-05" /><rect
           style="fill:#d64a4d;fill-opacity:1;fill-rule:evenodd;stroke:none;stroke-width:4.99998;stroke-linecap:round;stroke-linejoin:round;paint-order:fill markers stroke"
           id="rect14016"
           width="10"
           height="10.000004"
           x="40"
           y="10.00009" /><rect
           style="fill:#213653;fill-opacity:1;fill-rule:evenodd;stroke:none;stroke-width:4.99998;stroke-linecap:round;stroke-linejoin:round;paint-order:fill markers stroke"
           id="rect14018"
           width="10"
           height="10.000004"
           x="50"
           y="9.3825722e-05" /><rect
           style="fill:#ef7f67;fill-opacity:1;fill-rule:evenodd;stroke:none;stroke-width:4.99998;stroke-linecap:round;stroke-linejoin:round;paint-order:fill markers stroke"
           id="rect14020"
           width="10"
           height="10.000004"
           x="50"
           y="10.00009" /><rect
           style="fill:#f1f6ef;fill-opacity:1;fill-rule:evenodd;stroke:none;stroke-width:4.99998;stroke-linecap:round;stroke-linejoin:round;paint-order:fill markers stroke"
           id="rect14022"
           width="10"
           height="10.000004"
           x="23.29958"
           y="37.411106"
           transform="rotate(-45)" /><rect
           style="fill:#b1d7da;fill-opacity:1;fill-rule:evenodd;stroke:none;stroke-width:4.99998;stroke-linecap:round;stroke-linejoin:round;paint-order:fill markers stroke"
           id="rect14024"
           width="10"
           height="10.000004"
           x="-1.1191048e-13"
           y="39.999996" /><rect
           style="fill:#f1f6ef;fill-opacity:1;fill-rule:evenodd;stroke:none;stroke-width:4.99998;stroke-linecap:round;stroke-linejoin:round;paint-order:fill markers stroke"
           id="rect14026"
           width="10"
           height="10.000004"
           x="-1.1191048e-13"
           y="49.999992" /><rect
           style="fill:#213653;fill-opacity:1;fill-rule:evenodd;stroke:none;stroke-width:4.99998;stroke-linecap:round;stroke-linejoin:round;paint-order:fill markers stroke"
           id="rect14028"
           width="10"
           height="10.000004"
           x="10"
           y="39.999996" /><rect
           style="fill:#ef7f67;fill-opacity:1;fill-rule:evenodd;stroke:none;stroke-width:4.99998;stroke-linecap:round;stroke-linejoin:round;paint-order:fill markers stroke"
           id="rect14030"
           width="10"
           height="10.000004"
           x="10"
           y="49.999992" /><path
           d="m 10,56.733431 c 2.794512,-2.52055 4.589054,-4.294518 5.383562,-5.32192 0.79451,-1.027394 1.191764,-2.047942 1.191764,-3.061642 0,-0.986302 -0.356002,-1.835616 -1.0685,-2.547946 -0.712312,-0.712332 -1.561618,-1.068494 -2.54792,-1.068494 -0.575318,0 -1.130132,0.11642 -1.664382,0.349292 C 10.760214,45.315569 10.328726,45.637473 10,46.048475 9.671336,45.637493 9.246496,45.315593 8.726038,45.082721 8.205396,44.849873 7.64381,44.733429 7.041094,44.733429 c -0.986302,0 -1.835672,0.356186 -2.547984,1.068494 -0.712312,0.71233 -1.068436,1.561644 -1.068436,2.547946 0,0.52052 0.06834,1 0.205648,1.438354 0.1373,0.438384 0.438632,0.952056 0.904104,1.541098 0.46597,0.589048 1.130132,1.308224 1.99317,2.157536 0.863038,0.849316 2.020568,1.931506 3.47259,3.246574 z"
           id="path14032"
           style="fill:#d64a4d;fill-opacity:1;stroke-width:0.0066146"
           sodipodi:nodetypes="cssssscssssssscc" /><rect
           style="fill:#d64a4d;fill-opacity:1;fill-rule:evenodd;stroke:none;stroke-width:4.99998;stroke-linecap:round;stroke-linejoin:round;paint-order:fill markers stroke"
           id="rect14034"
           width="10"
           height="10.000004"
           x="60"
           y="9.3825722e-05" /><rect
           style="fill:#d64a4d;fill-opacity:1;fill-rule:evenodd;stroke:none;stroke-width:4.99998;stroke-linecap:round;stroke-linejoin:round;paint-order:fill markers stroke"
           id="rect14036"
           width="10"
           height="10.000004"
           x="60"
           y="10.000086" /><rect
           style="fill:#213653;fill-opacity:1;fill-rule:evenodd;stroke:none;stroke-width:4.99998;stroke-linecap:round;stroke-linejoin:round;paint-order:fill markers stroke"
           id="rect14038"
           width="10"
           height="10.000004"
           x="30.000048"
           y="20.000376" /><rect
           style="fill:#ef7f67;fill-opacity:1;fill-rule:evenodd;stroke:none;stroke-width:4.99998;stroke-linecap:round;stroke-linejoin:round;paint-order:fill markers stroke"
           id="rect14040"
           width="10"
           height="10.000004"
           x="30.000048"
           y="30.000376" /><path
           id="path14044"
           style="fill:#f1f6ef;fill-opacity:1;fill-rule:evenodd;stroke:none;stroke-width:4.99998;stroke-linecap:round;stroke-linejoin:round;paint-order:fill markers stroke"
           d="M 30,20.000188 V 30.00061 H 40.000422 A 10,10 0 0 0 30,20.000188 Z" /><rect
           style="fill:#213653;fill-opacity:1;fill-rule:evenodd;stroke:none;stroke-width:4.99998;stroke-linecap:round;stroke-linejoin:round;paint-order:fill markers stroke"
           id="rect14052"
           width="20"
           height="20.000008"
           x="20"
           y="39.999996" /><path
           id="path14054"
           style="fill:#f1f6ef;fill-opacity:1;fill-rule:evenodd;stroke:none;stroke-width:4.99998;stroke-linecap:round;stroke-linejoin:round;paint-order:fill markers stroke"
           d="M 19.999694,40.000126 V 59.999938 H 39.99951 A 20,20 0 0 0 19.999694,40.000126 Z" /><path
           id="path14056"
           style="fill:#d64a4d;fill-opacity:1;fill-rule:evenodd;stroke:none;stroke-width:5;stroke-linecap:round;stroke-linejoin:round;paint-order:fill markers stroke"
           d="M 19.999694,49.999517 V 59.999938 H 30.00012 A 10,10 0 0 0 19.999694,49.999517 Z" /><path
           id="path14800"
           style="fill:#d64a4d;fill-rule:evenodd;stroke:none;stroke-width:4.99998;stroke-linecap:round;stroke-linejoin:round;paint-order:fill markers stroke"
           d="M 0,80 H 20 L 10,90 Z"
           sodipodi:nodetypes="cccc" /><path
           id="path14802"
           style="fill:#213653;fill-opacity:1;fill-rule:evenodd;stroke:none;stroke-width:4.99998;stroke-linecap:round;stroke-linejoin:round;paint-order:fill markers stroke"
           d="m 20,80 v 20 L 10,90 Z"
           sodipodi:nodetypes="cccc" /><path
           id="path14804"
           style="fill:#f1f6ef;fill-opacity:1;fill-rule:evenodd;stroke:none;stroke-width:4.99998;stroke-linecap:round;stroke-linejoin:round;paint-order:fill markers stroke"
           d="M 20,100 H 0 L 10,90 Z"
           sodipodi:nodetypes="cccc" /><path
           id="path14806"
           style="fill:#ef7f67;fill-opacity:1;fill-rule:evenodd;stroke:none;stroke-width:4.99998;stroke-linecap:round;stroke-linejoin:round;paint-order:fill markers stroke"
           d="M 0,100 V 80 l 10,10 z"
           sodipodi:nodetypes="cccc" /><path
           id="path14808"
           style="fill:#d64a4d;fill-rule:evenodd;stroke:none;stroke-width:4.99998;stroke-linecap:round;stroke-linejoin:round;paint-order:fill markers stroke"
           d="m 0,20.000094 h 20 l -10,10 z"
           sodipodi:nodetypes="cccc" /><path
           id="path14810"
           style="fill:#ef7f67;fill-opacity:1;fill-rule:evenodd;stroke:none;stroke-width:4.99998;stroke-linecap:round;stroke-linejoin:round;paint-order:fill markers stroke"
           d="M 20,20.000094 V 40.000096 L 10,30.000094 Z"
           sodipodi:nodetypes="cccc" /><path
           id="path14812"
           style="fill:#f1f6ef;fill-opacity:1;fill-rule:evenodd;stroke:none;stroke-width:4.99998;stroke-linecap:round;stroke-linejoin:round;paint-order:fill markers stroke"
           d="M 20,40.000094 H 0 l 10,-10 z"
           sodipodi:nodetypes="cccc" /><path
           id="path14814"
           style="fill:#b1d7da;fill-opacity:1;fill-rule:evenodd;stroke:none;stroke-width:4.99998;stroke-linecap:round;stroke-linejoin:round;paint-order:fill markers stroke"
           d="m 0,40.000094 v -20 l 10,10 z"
           sodipodi:nodetypes="cccc" /><path
           id="path14816"
           style="fill:#d64a4d;fill-rule:evenodd;stroke:none;stroke-width:4.99998;stroke-linecap:round;stroke-linejoin:round;paint-order:fill markers stroke"
           d="M 20,59.999999 H 40 L 30,70 Z"
           sodipodi:nodetypes="cccc" /><path
           id="path14818"
           style="fill:#213653;fill-opacity:1;fill-rule:evenodd;stroke:none;stroke-width:4.99998;stroke-linecap:round;stroke-linejoin:round;paint-order:fill markers stroke"
           d="M 40,59.999999 V 80.000004 L 30,70 Z"
           sodipodi:nodetypes="cccc" /><path
           id="path14820"
           style="fill:#2c4c72;fill-opacity:1;fill-rule:evenodd;stroke:none;stroke-width:4.99998;stroke-linecap:round;stroke-linejoin:round;paint-order:fill markers stroke"
           d="M 40,80.000002 H 20 L 30,70 Z"
           sodipodi:nodetypes="cccc" /><path
           id="path14822"
           style="fill:#ef7f67;fill-opacity:1;fill-rule:evenodd;stroke:none;stroke-width:4.99998;stroke-linecap:round;stroke-linejoin:round;paint-order:fill markers stroke"
           d="M 20,80.000002 V 59.999999 L 30,70 Z"
           sodipodi:nodetypes="cccc" /><circle
           style="fill:#f1f6ef;fill-opacity:1;fill-rule:evenodd;stroke:none;stroke-width:4.99998;stroke-linecap:round;stroke-linejoin:round;paint-order:fill markers stroke"
           id="circle14824"
           cx="30.000013"
           cy="70"
           r="6.000001" /><rect
           style="fill:#b1d7da;fill-opacity:1;fill-rule:evenodd;stroke:none;stroke-width:4.99998;stroke-linecap:round;stroke-linejoin:round;paint-order:fill markers stroke"
           id="rect14826"
           width="10.000002"
           height="10.000006"
           x="40"
           y="59.999996" /><rect
           style="fill:#d64a4d;fill-opacity:1;fill-rule:evenodd;stroke:none;stroke-width:4.99998;stroke-linecap:round;stroke-linejoin:round;paint-order:fill markers stroke"
           id="rect14828"
           width="10.000002"
           height="10.000006"
           x="40"
           y="69.999992" /><rect
           style="fill:#213653;fill-opacity:1;fill-rule:evenodd;stroke:none;stroke-width:4.99998;stroke-linecap:round;stroke-linejoin:round;paint-order:fill markers stroke"
           id="rect14830"
           width="10.000002"
           height="10.000006"
           x="50"
           y="59.999996" /><rect
           style="fill:#ef7f67;fill-opacity:1;fill-rule:evenodd;stroke:none;stroke-width:4.99998;stroke-linecap:round;stroke-linejoin:round;paint-order:fill markers stroke"
           id="rect14832"
           width="10.000002"
           height="10.000006"
           x="50"
           y="69.999992" /><path
           d="m 49.999975,76.73343 c 2.79452,-2.52055 4.58906,-4.294518 5.38356,-5.32192 0.79452,-1.027394 1.19178,-2.047943 1.19178,-3.061643 0,-0.986302 -0.356,-1.835616 -1.0685,-2.547946 -0.71232,-0.712332 -1.56162,-1.068494 -2.54792,-1.068494 -0.57532,0 -1.13014,0.11642 -1.66438,0.349292 -0.53432,0.232848 -0.9658,0.554752 -1.29454,0.965754 -0.32866,-0.410982 -0.7535,-0.732882 -1.27396,-0.965754 -0.52064,-0.232848 -1.08222,-0.349292 -1.68494,-0.349292 -0.9863,0 -1.83568,0.356186 -2.54798,1.068494 -0.71232,0.71233 -1.06844,1.561644 -1.06844,2.547946 0,0.52052 0.0684,1 0.20564,1.438354 0.1374,0.438384 0.43864,0.952057 0.90412,1.541099 0.46596,0.589048 1.13012,1.308224 1.99316,2.157536 0.86304,0.849316 2.02058,1.931506 3.4726,3.246574 z"
           id="path14834"
           style="fill:#f1f6ef;fill-opacity:1;stroke-width:0.00661458"
           sodipodi:nodetypes="cssssscssssssscc" /><rect
           style="fill:#b1d7da;fill-opacity:1;fill-rule:evenodd;stroke:none;stroke-width:4.99998;stroke-linecap:round;stroke-linejoin:round;paint-order:fill markers stroke"
           id="rect14836"
           width="10.000002"
           height="10.000006"
           x="60.000011"
           y="40.000004" /><path
           id="path14838"
           style="fill:#213653;fill-opacity:1;fill-rule:evenodd;stroke-width:4.99998;stroke-linecap:round;stroke-linejoin:round;paint-order:fill markers stroke"
           d="M 59.99999,40.000002 70,50.000008 H 59.99999 Z"
           sodipodi:nodetypes="cccc" /><rect
           style="fill:#b1d7da;fill-opacity:1;fill-rule:evenodd;stroke:none;stroke-width:4.99998;stroke-linecap:round;stroke-linejoin:round;paint-order:fill markers stroke"
           id="rect14840"
           width="10.000002"
           height="10.000006"
           x="60.000011"
           y="50.000004" /><path
           id="path14842"
           style="fill:#213653;fill-opacity:1;fill-rule:evenodd;stroke-width:4.99998;stroke-linecap:round;stroke-linejoin:round;paint-order:fill markers stroke"
           d="M 59.99999,50 70,60.000005 H 59.99999 Z"
           sodipodi:nodetypes="cccc" /><rect
           style="fill:#b1d7da;fill-opacity:1;fill-rule:evenodd;stroke:none;stroke-width:4.99998;stroke-linecap:round;stroke-linejoin:round;paint-order:fill markers stroke"
           id="rect14844"
           width="10.000002"
           height="10.000006"
           x="70.000015"
           y="40.000004" /><path
           id="path14846"
           style="fill:#213653;fill-opacity:1;fill-rule:evenodd;stroke-width:4.99998;stroke-linecap:round;stroke-linejoin:round;paint-order:fill markers stroke"
           d="M 70,40.000002 80,50.000008 H 70 Z"
           sodipodi:nodetypes="cccc" /><rect
           style="fill:#b1d7da;fill-opacity:1;fill-rule:evenodd;stroke:none;stroke-width:4.99998;stroke-linecap:round;stroke-linejoin:round;paint-order:fill markers stroke"
           id="rect14848"
           width="10.000002"
           height="10.000006"
           x="70.000015"
           y="50.000004" /><path
           id="path14850"
           style="fill:#213653;fill-opacity:1;fill-rule:evenodd;stroke-width:4.99998;stroke-linecap:round;stroke-linejoin:round;paint-order:fill markers stroke"
           d="M 70,50 80,60.000005 H 70 Z"
           sodipodi:nodetypes="cccc" /><rect
           style="fill:#213653;fill-opacity:1;fill-rule:evenodd;stroke:none;stroke-width:4.99998;stroke-linecap:round;stroke-linejoin:round;paint-order:fill markers stroke"
           id="rect14852"
           width="20.000004"
           height="20.000011"
           x="39.999882"
           y="-99.999519"
           transform="scale(1,-1)" /><path
           id="path14854"
           style="fill:#f1f6ef;fill-opacity:1;fill-rule:evenodd;stroke:none;stroke-width:4.99998;stroke-linecap:round;stroke-linejoin:round;paint-order:fill markers stroke"
           d="M 39.999578,99.999391 V 79.999576 H 59.999401 A 20.000003,20.000003 0 0 1 39.999578,99.999391 Z" /><path
           id="path14856"
           style="fill:#d64a4d;fill-opacity:1;fill-rule:evenodd;stroke:none;stroke-width:5;stroke-linecap:round;stroke-linejoin:round;paint-order:fill markers stroke"
           d="M 39.999578,90 V 79.999576 H 50 A 10.000002,10.000002 0 0 1 39.999578,90 Z" /><rect
           style="fill:#b1d7da;fill-opacity:1;fill-rule:evenodd;stroke:none;stroke-width:4.99998;stroke-linecap:round;stroke-linejoin:round;paint-order:fill markers stroke"
           id="rect16326"
           width="10.000002"
           height="10.000006"
           x="19.999998"
           y="80" /><rect
           style="fill:#d64a4d;fill-opacity:1;fill-rule:evenodd;stroke:none;stroke-width:4.99998;stroke-linecap:round;stroke-linejoin:round;paint-order:fill markers stroke"
           id="rect16328"
           width="10.000002"
           height="10.000006"
           x="19.999998"
           y="90" /><rect
           style="fill:#213653;fill-opacity:1;fill-rule:evenodd;stroke:none;stroke-width:4.99998;stroke-linecap:round;stroke-linejoin:round;paint-order:fill markers stroke"
           id="rect16330"
           width="10.000002"
           height="10.000006"
           x="29.999998"
           y="80" /><rect
           style="fill:#ef7f67;fill-opacity:1;fill-rule:evenodd;stroke:none;stroke-width:4.99998;stroke-linecap:round;stroke-linejoin:round;paint-order:fill markers stroke"
           id="rect16332"
           width="10.000002"
           height="10.000006"
           x="29.999998"
           y="90" /><rect
           style="fill:#f1f6ef;fill-opacity:1;fill-rule:evenodd;stroke:none;stroke-width:4.99998;stroke-linecap:round;stroke-linejoin:round;paint-order:fill markers stroke"
           id="rect16334"
           width="10.000002"
           height="10.000006"
           x="-47.41106"
           y="79.837425"
           transform="rotate(-45)" /><rect
           style="fill:#d64a4d;fill-opacity:1;fill-rule:evenodd;stroke:none;stroke-width:4.99998;stroke-linecap:round;stroke-linejoin:round;paint-order:fill markers stroke"
           id="rect16336"
           width="10"
           height="10.000004"
           x="60.00005"
           y="59.999763" /><rect
           style="fill:#d64a4d;fill-opacity:1;fill-rule:evenodd;stroke:none;stroke-width:4.99998;stroke-linecap:round;stroke-linejoin:round;paint-order:fill markers stroke"
           id="rect16338"
           width="10"
           height="10.000004"
           x="60.00005"
           y="69.999756" /><rect
           style="fill:#213653;fill-opacity:1;fill-rule:evenodd;stroke:none;stroke-width:4.99998;stroke-linecap:round;stroke-linejoin:round;paint-order:fill markers stroke"
           id="rect16340"
           width="10"
           height="10.000004"
           x="70.000046"
           y="59.999763" /><rect
           style="fill:#ef7f67;fill-opacity:1;fill-rule:evenodd;stroke:none;stroke-width:4.99998;stroke-linecap:round;stroke-linejoin:round;paint-order:fill markers stroke"
           id="rect16342"
           width="10"
           height="10.000004"
           x="70.000046"
           y="69.999756" /><circle
           style="fill:#f1f6ef;fill-opacity:1;fill-rule:evenodd;stroke:none;stroke-width:4.99998;stroke-linecap:round;stroke-linejoin:round;paint-order:fill markers stroke"
           id="circle16344"
           cx="70.000046"
           cy="69.999763"
           r="10" /><path
           id="path16346"
           style="fill:#d64a4d;fill-opacity:1;fill-rule:evenodd;stroke:none;stroke-width:4.99998;stroke-linecap:round;stroke-linejoin:round;paint-order:fill markers stroke"
           d="M 70,59.999577 V 70 H 80.000422 A 10,10 0 0 0 70,59.999577 Z" /><path
           id="path16348"
           style="fill:#d64a4d;fill-opacity:1;fill-rule:evenodd;stroke:none;stroke-width:4.99998;stroke-linecap:round;stroke-linejoin:round;paint-order:fill markers stroke"
           d="m 70,70 v 9.99939 A 10,10 0 0 0 80.000422,70 Z" /><path
           id="path16350"
           style="fill:#f1f6ef;fill-opacity:1;fill-rule:evenodd;stroke:none;stroke-width:4.99998;stroke-linecap:round;stroke-linejoin:round;paint-order:fill markers stroke"
           d="M 59.999576,70 A 10,10 0 0 0 70,79.99939 V 70 Z" /><path
           id="path16352"
           style="fill:#f1f6ef;fill-opacity:1;fill-rule:evenodd;stroke:none;stroke-width:4.99998;stroke-linecap:round;stroke-linejoin:round;paint-order:fill markers stroke"
           d="M 70,59.999577 A 10,10 0 0 0 59.999576,70 H 70 Z" /><rect
           style="fill:#d64a4d;fill-opacity:1;fill-rule:evenodd;stroke:none;stroke-width:4.99998;stroke-linecap:round;stroke-linejoin:round;paint-order:fill markers stroke"
           id="rect16354"
           width="10"
           height="10.000004"
           x="60"
           y="80.000008" /><rect
           style="fill:#d64a4d;fill-opacity:1;fill-rule:evenodd;stroke:none;stroke-width:4.99998;stroke-linecap:round;stroke-linejoin:round;paint-order:fill markers stroke"
           id="rect16356"
           width="10"
           height="10.000004"
           x="60"
           y="89.999992" /><rect
           style="fill:#213653;fill-opacity:1;fill-rule:evenodd;stroke:none;stroke-width:4.99998;stroke-linecap:round;stroke-linejoin:round;paint-order:fill markers stroke"
           id="rect16910"
           width="10"
           height="10.000004"
           x="-30"
           y="20"
           transform="scale(-1,1)" /><rect
           style="fill:#d64a4d;fill-opacity:1;fill-rule:evenodd;stroke:none;stroke-width:4.99998;stroke-linecap:round;stroke-linejoin:round;paint-order:fill markers stroke"
           id="rect16912"
           width="10"
           height="10.000004"
           x="-30"
           y="30"
           transform="scale(-1,1)" /><g
           id="g16997"
           transform="matrix(2.0000003,0,0,2.0000003,19.442139,39.999997)"
           style="stroke-width:0.5"><rect
             style="fill:#213653;fill-opacity:1;fill-rule:evenodd;stroke:none;stroke-width:2.49999;stroke-linecap:round;stroke-linejoin:round;paint-order:fill markers stroke"
             id="rect16987"
             width="8"
             height="4"
             x="6"
             y="8"
             ry="2" /><path
             id="path16989"
             style="fill:#213653;fill-opacity:1;fill-rule:evenodd;stroke-width:2.49999;stroke-linecap:round;stroke-linejoin:round;paint-order:fill markers stroke"
             d="m 12,10 h 2 v 2.755664 a 0.30172221,0.30172221 151.66435 0 1 -0.467501,0.252099 L 12,12 Z"
             sodipodi:nodetypes="ccccc"
             inkscape:path-effect="#path-effect17001"
             inkscape:original-d="m 12,10 h 2 v 3.315189 L 12,12 Z" /><circle
             style="fill:#f1f6ef;fill-opacity:1;fill-rule:evenodd;stroke:none;stroke-width:2.49999;stroke-linecap:round;stroke-linejoin:round;paint-order:fill markers stroke"
             id="circle16991"
             cx="8.0031815"
             cy="10"
             r="0.30000001" /><circle
             style="fill:#f1f6ef;fill-opacity:1;fill-rule:evenodd;stroke:none;stroke-width:2.49999;stroke-linecap:round;stroke-linejoin:round;paint-order:fill markers stroke"
             id="circle16993"
             cx="10.016036"
             cy="10"
             r="0.30000001" /><circle
             style="fill:#f1f6ef;fill-opacity:1;fill-rule:evenodd;stroke:none;stroke-width:2.49999;stroke-linecap:round;stroke-linejoin:round;paint-order:fill markers stroke"
             id="circle16995"
             cx="12.02889"
             cy="10"
             r="0.30000001" /></g><g
           id="g17013"
           transform="matrix(2.0000003,0,0,2.0000003,-10.102921,9.8812462)"
           style="stroke-width:0.5"><rect
             style="fill:#213653;fill-opacity:1;fill-rule:evenodd;stroke:none;stroke-width:2.49999;stroke-linecap:round;stroke-linejoin:round;paint-order:fill markers stroke"
             id="rect17003"
             width="8"
             height="4"
             x="6"
             y="8"
             ry="2" /><path
             id="path17005"
             style="fill:#213653;fill-opacity:1;fill-rule:evenodd;stroke-width:2.49999;stroke-linecap:round;stroke-linejoin:round;paint-order:fill markers stroke"
             d="m 12,10 h 2 v 2.755664 a 0.30172221,0.30172221 151.66435 0 1 -0.467501,0.252099 L 12,12 Z"
             sodipodi:nodetypes="ccccc"
             inkscape:path-effect="#path-effect17017"
             inkscape:original-d="m 12,10 h 2 v 3.315189 L 12,12 Z" /><circle
             style="fill:#f1f6ef;fill-opacity:1;fill-rule:evenodd;stroke:none;stroke-width:2.49999;stroke-linecap:round;stroke-linejoin:round;paint-order:fill markers stroke"
             id="circle17007"
             cx="8.0031815"
             cy="10"
             r="0.30000001" /><circle
             style="fill:#f1f6ef;fill-opacity:1;fill-rule:evenodd;stroke:none;stroke-width:2.49999;stroke-linecap:round;stroke-linejoin:round;paint-order:fill markers stroke"
             id="circle17009"
             cx="10.016036"
             cy="10"
             r="0.30000001" /><circle
             style="fill:#f1f6ef;fill-opacity:1;fill-rule:evenodd;stroke:none;stroke-width:2.49999;stroke-linecap:round;stroke-linejoin:round;paint-order:fill markers stroke"
             id="circle17011"
             cx="12.02889"
             cy="10"
             r="0.30000001" /></g></g><g
         id="g22160"
         transform="translate(-70.956101,-7.1496426)"><g
           aria-label="Couple's"
           transform="scale(0.99607139,1.0039441)"
           id="text21969"
           style="font-size:13.1784px;line-height:1.3;font-family:NinfaW00-Regular;-inkscape-font-specification:'NinfaW00-Regular, Normal';fill:#213653;fill-rule:evenodd;stroke:#213653;stroke-linecap:round;stroke-linejoin:round;paint-order:stroke fill markers"><path
             d="m 86.362117,43.583022 c 0.105427,0 0.210854,-0.01318 0.316282,-0.03954 0.105427,-0.02636 0.197676,-0.06589 0.276746,-0.131784 0.07907,-0.05271 0.158141,-0.144962 0.210854,-0.25039 0.05271,-0.105427 0.09225,-0.237211 0.09225,-0.40853 0,-0.210854 -0.06589,-0.434887 -0.197676,-0.65892 -0.131784,-0.210854 -0.303103,-0.40853 -0.540314,-0.57985 -0.237211,-0.171319 -0.527136,-0.316281 -0.869775,-0.421708 -0.342638,-0.105428 -0.73799,-0.17132 -1.159699,-0.17132 -0.698455,0 -1.278305,0.144963 -1.752727,0.434888 -0.474422,0.289924 -0.843418,0.672098 -1.133342,1.133342 -0.289925,0.461244 -0.50078,0.975202 -0.632564,1.528694 -0.131784,0.566672 -0.184497,1.120165 -0.184497,1.647301 0,0.73799 0.07907,1.383732 0.210854,1.924046 0.131784,0.553493 0.355817,1.001558 0.645742,1.357375 0.289925,0.368995 0.672098,0.632563 1.146521,0.803883 0.461244,0.184497 1.027915,0.263568 1.686835,0.263568 0.303103,0 0.606206,-0.02636 0.896131,-0.105428 0.289925,-0.06589 0.566671,-0.15814 0.830239,-0.263568 0.263568,-0.105427 0.500779,-0.237211 0.737991,-0.368995 0.224032,-0.131784 0.421708,-0.276746 0.606206,-0.40853 l -0.197676,-0.303103 c -0.434887,0.263568 -0.856596,0.448065 -1.278305,0.579849 -0.421709,0.131784 -0.803882,0.197676 -1.172877,0.197676 -0.421709,0 -0.817061,-0.03954 -1.172878,-0.144962 -0.355817,-0.105427 -0.65892,-0.289925 -0.922488,-0.57985 -0.263568,-0.289925 -0.461244,-0.685277 -0.606206,-1.186056 -0.158141,-0.500779 -0.224033,-1.146521 -0.224033,-1.950403 0,-0.606206 0.03954,-1.172878 0.144962,-1.686835 0.09225,-0.513958 0.237211,-0.948845 0.448066,-1.31784 0.197676,-0.368996 0.448065,-0.645742 0.764347,-0.856596 0.303103,-0.197676 0.65892,-0.303104 1.080629,-0.303104 0.632563,0 1.106985,0.197676 1.39691,0.57985 0.289925,0.382174 0.474423,0.948845 0.553493,1.686835 z"
             id="path685" /><path
             d="m 89.314047,46.587698 c 0,-0.316282 0.02636,-0.65892 0.09225,-1.027916 0.06589,-0.368995 0.171319,-0.698455 0.316281,-1.014737 0.131784,-0.303103 0.316282,-0.553492 0.553493,-0.751168 0.224033,-0.197676 0.500779,-0.303104 0.843418,-0.303104 0.316281,0 0.593028,0.09225 0.830239,0.25039 0.224033,0.171319 0.40853,0.395352 0.553493,0.685277 0.144962,0.289925 0.250389,0.619385 0.316281,0.98838 0.06589,0.368995 0.105427,0.764347 0.105427,1.172878 0,0.342638 -0.03954,0.685276 -0.105427,1.041093 -0.06589,0.368995 -0.171319,0.698455 -0.303103,1.001559 -0.144962,0.303103 -0.32946,0.553492 -0.566671,0.751168 -0.237211,0.197676 -0.513958,0.289925 -0.830239,0.289925 -0.342639,0 -0.619385,-0.07907 -0.843418,-0.237211 -0.237211,-0.158141 -0.421709,-0.368995 -0.553493,-0.645742 -0.144962,-0.276746 -0.250389,-0.606206 -0.316281,-0.975201 -0.06589,-0.368995 -0.09225,-0.777526 -0.09225,-1.225591 z m 4.810116,-0.263568 c 0,-0.553493 -0.07907,-1.027916 -0.210855,-1.423268 -0.131784,-0.395352 -0.32946,-0.724812 -0.579849,-0.98838 -0.25039,-0.250389 -0.553493,-0.434887 -0.90931,-0.566671 -0.355817,-0.118606 -0.751169,-0.184498 -1.199234,-0.184498 -0.461244,0 -0.882953,0.09225 -1.251948,0.276747 -0.382174,0.184497 -0.711634,0.448065 -0.975202,0.764347 -0.276746,0.32946 -0.487601,0.724812 -0.632563,1.172878 -0.158141,0.448065 -0.224033,0.948845 -0.224033,1.475981 0,1.106985 0.237211,1.910868 0.737991,2.411647 0.4876,0.500779 1.186056,0.751169 2.108544,0.751169 0.448065,0 0.869774,-0.09225 1.265126,-0.276747 0.382174,-0.184497 0.711634,-0.434887 0.98838,-0.764347 0.276746,-0.32946 0.487601,-0.724812 0.645742,-1.172878 0.15814,-0.448065 0.237211,-0.948844 0.237211,-1.47598 z"
             id="path687" /><path
             d="m 100.72652,48.010965 v -3.189173 c 0,-0.303103 0,-0.566671 0.0132,-0.803883 0.0132,-0.224032 0.0395,-0.461244 0.0791,-0.724812 h -1.146521 v 2.912427 c 0,0.421709 -0.07907,0.817061 -0.210854,1.172878 -0.131784,0.355816 -0.303103,0.65892 -0.513958,0.909309 -0.210854,0.263568 -0.434887,0.461244 -0.685276,0.606207 -0.263568,0.144962 -0.50078,0.210854 -0.737991,0.210854 -0.289925,0 -0.474422,-0.07907 -0.566671,-0.263568 -0.105427,-0.171319 -0.144962,-0.448066 -0.144962,-0.817061 0,-0.632563 0.01318,-1.304661 0.06589,-2.016295 0.05271,-0.711634 0.07907,-1.370554 0.07907,-2.003117 0,-0.500779 -0.25039,-0.751169 -0.73799,-0.751169 -0.144963,0 -0.303104,0.03954 -0.461244,0.09225 -0.158141,0.05271 -0.316282,0.118606 -0.474423,0.197676 -0.158141,0.07907 -0.289925,0.144962 -0.421709,0.224033 -0.131784,0.07907 -0.224032,0.131784 -0.276746,0.171319 l 0.09225,0.25039 c 0.03953,0 0.118605,-0.01318 0.237211,-0.03954 0.118606,-0.01318 0.237211,-0.02636 0.368995,-0.02636 0.237211,0 0.382174,0.09225 0.461244,0.250389 0.07907,0.158141 0.118606,0.448066 0.118606,0.843418 0,0.237211 -0.01318,0.500779 -0.02636,0.790704 -0.01318,0.303103 -0.02636,0.619385 -0.03954,0.935666 l -0.03954,0.962024 c -0.01318,0.316281 -0.01318,0.619384 -0.01318,0.882952 0,0.382174 0.07907,0.685277 0.237211,0.896132 0.158141,0.224032 0.421709,0.32946 0.790704,0.32946 0.289925,0 0.566672,-0.05271 0.856596,-0.184498 0.289925,-0.131784 0.553493,-0.289925 0.817061,-0.500779 0.263568,-0.210855 0.500779,-0.448066 0.724812,-0.711634 0.210855,-0.263568 0.408531,-0.553493 0.566671,-0.843417 l 0.02636,0.01318 c -0.03954,0.32946 -0.06589,0.606206 -0.07907,0.817061 -0.02636,0.224033 -0.02636,0.448065 -0.02636,0.685277 0,0.07907 0,0.15814 0.02636,0.237211 0.01318,0.07907 0.03954,0.158141 0.09225,0.237211 0.05271,0.07907 0.118605,0.131784 0.224034,0.184498 0.0922,0.05271 0.22403,0.06589 0.38217,0.06589 0.26357,0 0.54032,-0.06589 0.84342,-0.210855 0.3031,-0.131784 0.57985,-0.289925 0.84342,-0.474422 l -0.0922,-0.25039 c -0.0527,0.01318 -0.13178,0.02636 -0.25039,0.03954 -0.13178,0.02636 -0.25039,0.02636 -0.369,0.02636 -0.15814,0 -0.27674,-0.02636 -0.35581,-0.07907 -0.0791,-0.05271 -0.14496,-0.118606 -0.1845,-0.224033 -0.0527,-0.09225 -0.0791,-0.210854 -0.0791,-0.355817 -0.0132,-0.131784 -0.0132,-0.289925 -0.0132,-0.474422 z"
             id="path689" /><path
             d="m 104.36373,48.854382 v -1.937224 c 0,-0.395352 0.0659,-0.764348 0.19767,-1.120164 0.13179,-0.342639 0.30311,-0.645742 0.52714,-0.90931 0.21085,-0.263568 0.46124,-0.461244 0.72481,-0.619385 0.26357,-0.158141 0.54032,-0.237211 0.83024,-0.237211 0.21085,0 0.369,0.05271 0.50078,0.158141 0.13178,0.105427 0.22403,0.250389 0.3031,0.434887 0.0659,0.184498 0.10543,0.421709 0.13179,0.685277 0.0263,0.263568 0.0395,0.566671 0.0395,0.882953 0,0.342638 -0.0395,0.711633 -0.1186,1.106985 -0.0791,0.395352 -0.21086,0.764347 -0.369,1.106986 -0.15814,0.342638 -0.36899,0.632563 -0.60621,0.869774 -0.25038,0.237211 -0.54031,0.342639 -0.85659,0.342639 -0.22403,0 -0.46125,-0.06589 -0.69846,-0.197676 -0.25039,-0.131784 -0.44806,-0.32946 -0.6062,-0.566672 z m -1.05427,-3.887628 v 5.508572 c 0,0.131784 -0.0132,0.276746 -0.0132,0.461244 0,0.184497 -0.0132,0.368995 -0.0264,0.553492 -0.0132,0.197676 -0.0264,0.382174 -0.0395,0.566672 -0.0263,0.184497 -0.0395,0.32946 -0.0527,0.461244 h 1.18606 V 49.77687 c 0.0527,0.02636 0.1186,0.05271 0.19767,0.07907 0.0791,0.02636 0.15814,0.05271 0.26357,0.07907 0.0923,0.02636 0.1845,0.03953 0.28993,0.05271 0.0922,0.02636 0.18449,0.02636 0.27674,0.02636 0.39535,0 0.79071,-0.07907 1.19924,-0.237212 0.39535,-0.15814 0.76434,-0.395352 1.0938,-0.724812 0.31629,-0.316281 0.57985,-0.724812 0.79071,-1.225591 0.19767,-0.500779 0.3031,-1.093807 0.3031,-1.779084 0,-0.527136 -0.0527,-0.975201 -0.13178,-1.344197 -0.0791,-0.368995 -0.19768,-0.65892 -0.32946,-0.896131 -0.13179,-0.224033 -0.28993,-0.382174 -0.47443,-0.487601 -0.18449,-0.105427 -0.38217,-0.158141 -0.59302,-0.158141 -0.34264,0 -0.65892,0.07907 -0.94885,0.210855 -0.3031,0.144962 -0.57985,0.32946 -0.83024,0.540314 -0.26357,0.224033 -0.4876,0.461244 -0.68527,0.724812 -0.19768,0.263568 -0.35582,0.527136 -0.4876,0.764348 l -0.0264,-0.01318 c 0.0527,-0.316281 0.0923,-0.645741 0.1186,-0.98838 0.0264,-0.342638 0.0395,-0.606206 0.0395,-0.817061 0,-0.131784 -0.0264,-0.224033 -0.0659,-0.303103 -0.0527,-0.07907 -0.14497,-0.118606 -0.27675,-0.118606 -0.21085,0 -0.43489,0.03954 -0.6721,0.105428 -0.23721,0.06589 -0.47442,0.131784 -0.68527,0.210854 -0.26357,0.105427 -0.51396,0.210854 -0.76435,0.316282 l 0.0527,0.263568 c 0.0791,-0.01318 0.1845,-0.02636 0.31628,-0.03954 0.13179,-0.01318 0.25039,-0.02636 0.38218,-0.02636 0.25039,0 0.40853,0.09225 0.4876,0.276746 0.0659,0.184498 0.10543,0.421709 0.10543,0.698455 z"
             id="path691" /><path
             d="m 111.40097,40.947342 c 0,-0.131784 -0.0264,-0.224033 -0.0659,-0.303103 -0.0527,-0.07907 -0.14496,-0.118606 -0.27675,-0.118606 -0.13178,0 -0.27675,0.02636 -0.44806,0.06589 -0.1845,0.03954 -0.369,0.09225 -0.5535,0.144963 -0.19767,0.06589 -0.39535,0.131784 -0.57985,0.210854 -0.19767,0.07907 -0.36899,0.144963 -0.51395,0.210855 l 0.0527,0.263568 c 0.0791,-0.01318 0.1845,-0.02636 0.31628,-0.03954 0.13178,-0.01318 0.25039,-0.02636 0.38217,-0.02636 0.13179,0 0.25039,0.03954 0.32946,0.09225 0.0791,0.05271 0.14497,0.131784 0.1845,0.237212 0.0264,0.105427 0.0527,0.237211 0.0659,0.382173 0,0.144963 0.0132,0.303103 0.0132,0.461244 v 5.429501 c 0,0.144963 -0.0132,0.303103 -0.0132,0.461244 0,0.171319 -0.0132,0.342639 -0.0264,0.513958 -0.0132,0.184497 -0.0264,0.355817 -0.0395,0.513957 -0.0132,0.158141 -0.0263,0.303104 -0.0527,0.434888 h 1.18605 v -7.366726 c 0,-0.25039 0,-0.500779 0.0132,-0.751169 0.0132,-0.25039 0.0264,-0.527136 0.0264,-0.817061 z"
             id="path693" /><path
             d="m 118.14829,45.928778 c 0,-0.06589 0.0132,-0.131784 0.0132,-0.184498 v -0.197676 c 0,-0.289925 -0.0527,-0.566671 -0.13178,-0.856596 -0.0791,-0.276747 -0.21085,-0.527136 -0.39535,-0.764347 -0.1845,-0.224033 -0.43489,-0.408531 -0.73799,-0.553493 -0.31628,-0.131784 -0.68528,-0.210855 -1.13335,-0.210855 -0.55349,0 -1.01473,0.118606 -1.38373,0.32946 -0.38217,0.224033 -0.69845,0.50078 -0.93566,0.843418 -0.23721,0.342639 -0.42171,0.737991 -0.52714,1.159699 -0.10543,0.434888 -0.15814,0.856596 -0.15814,1.278305 0,0.487601 0.0527,0.922488 0.15814,1.31784 0.10543,0.395352 0.27675,0.737991 0.51396,1.027915 0.22403,0.289925 0.51396,0.50078 0.88295,0.65892 0.35582,0.158141 0.77753,0.237212 1.27831,0.237212 0.4217,0 0.86977,-0.09225 1.33101,-0.276747 0.46125,-0.184497 0.88296,-0.448065 1.27831,-0.790704 l -0.17132,-0.303103 c -0.39535,0.237211 -0.76435,0.40853 -1.10699,0.527136 -0.34263,0.118606 -0.71163,0.171319 -1.12016,0.171319 -0.34264,0 -0.61938,-0.07907 -0.8566,-0.237211 -0.23721,-0.158141 -0.43488,-0.368995 -0.57985,-0.632563 -0.15814,-0.263568 -0.26356,-0.553493 -0.34263,-0.896131 -0.0791,-0.32946 -0.10543,-0.672099 -0.10543,-1.041094 0,-0.09225 0,-0.184498 0,-0.263568 0,-0.07907 0.0132,-0.158141 0.0264,-0.263568 0.21085,0 0.50077,0 0.85659,-0.01318 0.35582,0 0.73799,-0.01318 1.13334,-0.01318 0.39536,0 0.79071,-0.01318 1.18606,-0.02636 0.39535,0 0.73799,-0.01318 1.02792,-0.02636 z m -1.89769,-0.395352 h -2.26669 c 0.0264,-0.210855 0.0659,-0.448066 0.13178,-0.685277 0.0659,-0.237212 0.17132,-0.448066 0.30311,-0.65892 0.13178,-0.197676 0.28992,-0.368996 0.50078,-0.50078 0.19767,-0.131784 0.44806,-0.197676 0.73799,-0.197676 0.21085,0 0.40853,0.05271 0.57985,0.131784 0.17132,0.07907 0.31628,0.197676 0.43488,0.32946 0.11861,0.131784 0.21086,0.289925 0.27675,0.461244 0.0527,0.184498 0.0923,0.355817 0.0923,0.540315 0,0.131784 -0.0132,0.237211 -0.0264,0.316282 -0.0263,0.07907 -0.0659,0.144962 -0.1186,0.184497 -0.0527,0.03954 -0.13179,0.06589 -0.23721,0.06589 -0.10543,0.01318 -0.25039,0.01318 -0.40853,0.01318 z"
             id="path695" /><path
             d="m 119.38704,43.635736 h 0.31628 c 0.0263,-0.197676 0.0659,-0.408531 0.1186,-0.645742 0.0395,-0.237211 0.0791,-0.461244 0.11861,-0.698455 0.0395,-0.224033 0.0791,-0.448066 0.10543,-0.65892 0.0264,-0.210854 0.0395,-0.395352 0.0395,-0.553493 0,-0.224033 -0.0395,-0.368995 -0.10543,-0.448065 -0.0791,-0.07907 -0.21085,-0.118606 -0.40853,-0.118606 -0.22403,0 -0.38217,0.05271 -0.46124,0.144962 -0.0791,0.105428 -0.11861,0.276747 -0.11861,0.527136 0,0.184498 0.0132,0.382174 0.0395,0.606207 0.0264,0.224033 0.0659,0.448065 0.1186,0.672098 0.0395,0.237211 0.0791,0.448066 0.13179,0.65892 0.0395,0.210855 0.0791,0.382174 0.10543,0.513958 z"
             id="path697" /><path
             d="m 123.40643,50.014082 c 0.32946,0 0.64575,-0.03954 0.94885,-0.144963 0.3031,-0.09225 0.56667,-0.224033 0.80388,-0.40853 0.23721,-0.184498 0.42171,-0.395352 0.56667,-0.65892 0.13179,-0.263568 0.21086,-0.553493 0.21086,-0.869775 0,-0.395352 -0.0922,-0.724812 -0.27675,-0.962023 -0.1845,-0.237211 -0.42171,-0.421709 -0.68528,-0.566671 -0.27674,-0.144962 -0.57985,-0.263568 -0.89613,-0.355817 -0.32946,-0.09225 -0.63256,-0.197676 -0.89613,-0.303103 -0.27675,-0.105427 -0.50078,-0.237211 -0.68528,-0.395352 -0.18449,-0.158141 -0.27674,-0.368995 -0.27674,-0.65892 0,-0.32946 0.0922,-0.619385 0.3031,-0.856596 0.21086,-0.237211 0.4876,-0.355817 0.84342,-0.355817 0.21085,0 0.39535,0.05271 0.55349,0.144962 0.15814,0.105428 0.28993,0.224033 0.39535,0.382174 0.10543,0.158141 0.19768,0.342638 0.26357,0.553493 0.0659,0.210854 0.11861,0.421709 0.17132,0.632563 0.26357,-0.01318 0.46124,-0.09225 0.59303,-0.250389 0.1186,-0.158141 0.1845,-0.329461 0.1845,-0.527137 0,-0.184497 -0.0659,-0.342638 -0.17132,-0.500779 -0.11861,-0.158141 -0.27675,-0.289925 -0.46125,-0.395352 -0.18449,-0.105427 -0.40853,-0.197676 -0.64574,-0.263568 -0.23721,-0.05271 -0.4876,-0.09225 -0.73799,-0.09225 -0.36899,0 -0.69845,0.05271 -0.98838,0.144963 -0.28992,0.105427 -0.54031,0.237211 -0.73799,0.40853 -0.19768,0.171319 -0.34264,0.368995 -0.44807,0.606207 -0.10542,0.237211 -0.15814,0.500779 -0.15814,0.764347 0,0.382174 0.0922,0.685277 0.27675,0.896131 0.1845,0.224033 0.40853,0.408531 0.68528,0.540315 0.26357,0.131784 0.56667,0.250389 0.89613,0.32946 0.31628,0.07907 0.61938,0.171319 0.89613,0.276746 0.26357,0.105427 0.50078,0.25039 0.68528,0.40853 0.18449,0.158141 0.27674,0.382174 0.27674,0.672099 0,0.421709 -0.10542,0.764347 -0.31628,1.027915 -0.21085,0.276746 -0.55349,0.40853 -1.02791,0.40853 -0.4876,0 -0.89614,-0.171319 -1.21242,-0.527136 -0.32946,-0.342638 -0.55349,-0.830239 -0.65892,-1.449624 -0.23721,0.07907 -0.40853,0.184498 -0.54031,0.32946 -0.13179,0.158141 -0.19768,0.342639 -0.19768,0.553493 0,0.184498 0.0395,0.355817 0.11861,0.527136 0.0791,0.184498 0.22403,0.342639 0.42171,0.474423 0.18449,0.144962 0.43488,0.263568 0.75117,0.342638 0.31628,0.07907 0.69845,0.118606 1.17287,0.118606 z"
             id="path699" /></g><g
           aria-label="Couple's"
           transform="scale(0.99607139,1.0039441)"
           id="text21754"
           style="font-size:13.1784px;line-height:1.3;font-family:NinfaW00-Regular;-inkscape-font-specification:'NinfaW00-Regular, Normal';fill:#f1f6ef;fill-rule:evenodd;stroke:#213653;stroke-width:0.8;stroke-linecap:round;stroke-linejoin:round;paint-order:stroke fill markers"><path
             d="m 86.291583,43.105548 c 0.105428,0 0.210855,-0.01318 0.316282,-0.03954 0.105427,-0.02636 0.197676,-0.06589 0.276746,-0.131784 0.07907,-0.05271 0.158141,-0.144963 0.210855,-0.25039 0.05271,-0.105427 0.09225,-0.237211 0.09225,-0.40853 0,-0.210855 -0.06589,-0.434887 -0.197676,-0.65892 -0.131784,-0.210855 -0.303104,-0.408531 -0.540315,-0.57985 -0.237211,-0.171319 -0.527136,-0.316281 -0.869774,-0.421709 -0.342639,-0.105427 -0.737991,-0.171319 -1.159699,-0.171319 -0.698456,0 -1.278305,0.144963 -1.752728,0.434887 -0.474422,0.289925 -0.843417,0.672099 -1.133342,1.133343 -0.289925,0.461244 -0.500779,0.975201 -0.632563,1.528694 -0.131784,0.566671 -0.184498,1.120164 -0.184498,1.6473 0,0.737991 0.07907,1.383732 0.210855,1.924047 0.131784,0.553492 0.355816,1.001558 0.645741,1.357375 0.289925,0.368995 0.672099,0.632563 1.146521,0.803882 0.461244,0.184498 1.027915,0.263568 1.686835,0.263568 0.303103,0 0.606207,-0.02636 0.896131,-0.105427 0.289925,-0.06589 0.566672,-0.158141 0.83024,-0.263568 0.263568,-0.105427 0.500779,-0.237211 0.73799,-0.368995 0.224033,-0.131784 0.421709,-0.276746 0.606206,-0.40853 l -0.197676,-0.303104 c -0.434887,0.263568 -0.856596,0.448066 -1.278304,0.57985 -0.421709,0.131784 -0.803883,0.197676 -1.172878,0.197676 -0.421709,0 -0.817061,-0.03954 -1.172878,-0.144962 -0.355816,-0.105428 -0.65892,-0.289925 -0.922488,-0.57985 -0.263568,-0.289925 -0.461244,-0.685277 -0.606206,-1.186056 -0.158141,-0.500779 -0.224033,-1.146521 -0.224033,-1.950403 0,-0.606207 0.03954,-1.172878 0.144963,-1.686836 0.09225,-0.513957 0.237211,-0.948844 0.448065,-1.31784 0.197676,-0.368995 0.448066,-0.645741 0.764347,-0.856596 0.303104,-0.197676 0.65892,-0.303103 1.080629,-0.303103 0.632563,0 1.106986,0.197676 1.396911,0.57985 0.289924,0.382173 0.474422,0.948845 0.553492,1.686835 z"
             id="path702" /><path
             d="m 89.243513,46.110223 c 0,-0.316281 0.02636,-0.65892 0.09225,-1.027915 0.06589,-0.368995 0.171319,-0.698455 0.316282,-1.014737 0.131784,-0.303103 0.316281,-0.553493 0.553492,-0.751169 0.224033,-0.197676 0.50078,-0.303103 0.843418,-0.303103 0.316282,0 0.593028,0.09225 0.830239,0.25039 0.224033,0.171319 0.408531,0.395352 0.553493,0.685277 0.144962,0.289924 0.25039,0.619384 0.316282,0.98838 0.06589,0.368995 0.105427,0.764347 0.105427,1.172877 0,0.342639 -0.03954,0.685277 -0.105427,1.041094 -0.06589,0.368995 -0.17132,0.698455 -0.303104,1.001558 -0.144962,0.303104 -0.32946,0.553493 -0.566671,0.751169 -0.237211,0.197676 -0.513957,0.289925 -0.830239,0.289925 -0.342638,0 -0.619385,-0.07907 -0.843418,-0.237211 -0.237211,-0.158141 -0.421708,-0.368995 -0.553492,-0.645742 -0.144963,-0.276746 -0.25039,-0.606206 -0.316282,-0.975202 -0.06589,-0.368995 -0.09225,-0.777525 -0.09225,-1.225591 z m 4.810116,-0.263568 c 0,-0.553493 -0.07907,-1.027915 -0.210854,-1.423267 -0.131784,-0.395352 -0.32946,-0.724812 -0.57985,-0.98838 -0.250389,-0.25039 -0.553493,-0.434887 -0.909309,-0.566671 -0.355817,-0.118606 -0.751169,-0.184498 -1.199235,-0.184498 -0.461244,0 -0.882953,0.09225 -1.251948,0.276747 -0.382173,0.184497 -0.711633,0.448065 -0.975201,0.764347 -0.276747,0.32946 -0.487601,0.724812 -0.632564,1.172877 -0.15814,0.448066 -0.224032,0.948845 -0.224032,1.475981 0,1.106986 0.237211,1.910868 0.73799,2.411648 0.487601,0.500779 1.186056,0.751168 2.108544,0.751168 0.448066,0 0.869774,-0.09225 1.265126,-0.276746 0.382174,-0.184498 0.711634,-0.434887 0.98838,-0.764347 0.276747,-0.32946 0.487601,-0.724812 0.645742,-1.172878 0.158141,-0.448066 0.237211,-0.948845 0.237211,-1.475981 z"
             id="path704" /><path
             d="m 100.65599,47.53349 v -3.189172 c 0,-0.303104 0,-0.566672 0.0132,-0.803883 0.0132,-0.224033 0.0395,-0.461244 0.0791,-0.724812 h -1.146524 v 2.912427 c 0,0.421708 -0.07907,0.81706 -0.210855,1.172877 -0.131784,0.355817 -0.303103,0.65892 -0.513957,0.90931 -0.210855,0.263568 -0.434888,0.461244 -0.685277,0.606206 -0.263568,0.144963 -0.500779,0.210855 -0.737991,0.210855 -0.289924,0 -0.474422,-0.07907 -0.566671,-0.263568 -0.105427,-0.17132 -0.144962,-0.448066 -0.144962,-0.817061 0,-0.632563 0.01318,-1.304662 0.06589,-2.016295 0.05271,-0.711634 0.07907,-1.370554 0.07907,-2.003117 0,-0.500779 -0.250389,-0.751169 -0.73799,-0.751169 -0.144963,0 -0.303103,0.03954 -0.461244,0.09225 -0.158141,0.05271 -0.316282,0.118605 -0.474423,0.197676 -0.15814,0.07907 -0.289924,0.144962 -0.421708,0.224033 -0.131784,0.07907 -0.224033,0.131784 -0.276747,0.171319 l 0.09225,0.250389 c 0.03954,0 0.118606,-0.01318 0.237211,-0.03954 0.118606,-0.01318 0.237211,-0.02636 0.368995,-0.02636 0.237212,0 0.382174,0.09225 0.461244,0.25039 0.07907,0.158141 0.118606,0.448066 0.118606,0.843418 0,0.237211 -0.01318,0.500779 -0.02636,0.790704 -0.01318,0.303103 -0.02636,0.619384 -0.03954,0.935666 l -0.03954,0.962023 c -0.01318,0.316282 -0.01318,0.619385 -0.01318,0.882953 0,0.382174 0.07907,0.685277 0.237212,0.896131 0.15814,0.224033 0.421708,0.32946 0.790704,0.32946 0.289924,0 0.566671,-0.05271 0.856596,-0.184497 0.289924,-0.131784 0.553492,-0.289925 0.81706,-0.500779 0.263568,-0.210855 0.50078,-0.448066 0.724812,-0.711634 0.210855,-0.263568 0.408531,-0.553493 0.566672,-0.843418 l 0.02636,0.01318 c -0.03954,0.32946 -0.06589,0.606206 -0.07907,0.81706 -0.02636,0.224033 -0.02636,0.448066 -0.02636,0.685277 0,0.07907 0,0.158141 0.02636,0.237212 0.01318,0.07907 0.03953,0.15814 0.09225,0.237211 0.05271,0.07907 0.118605,0.131784 0.224033,0.184497 0.09224,0.05271 0.224034,0.06589 0.382174,0.06589 0.26357,0 0.54031,-0.06589 0.84342,-0.210854 0.3031,-0.131784 0.57985,-0.289925 0.84341,-0.474422 l -0.0922,-0.25039 c -0.0527,0.01318 -0.13179,0.02636 -0.25039,0.03954 -0.13179,0.02636 -0.25039,0.02636 -0.369,0.02636 -0.15814,0 -0.27675,-0.02636 -0.35582,-0.07907 -0.0791,-0.05271 -0.14496,-0.118606 -0.18449,-0.224033 -0.0527,-0.09225 -0.0791,-0.210855 -0.0791,-0.355817 -0.0132,-0.131784 -0.0132,-0.289925 -0.0132,-0.474423 z"
             id="path706" /><path
             d="m 104.29319,48.376908 v -1.937225 c 0,-0.395352 0.0659,-0.764347 0.19768,-1.120164 0.13178,-0.342638 0.3031,-0.645741 0.52714,-0.909309 0.21085,-0.263568 0.46124,-0.461244 0.72481,-0.619385 0.26357,-0.158141 0.54031,-0.237211 0.83024,-0.237211 0.21085,0 0.36899,0.05271 0.50078,0.15814 0.13178,0.105428 0.22403,0.25039 0.3031,0.434888 0.0659,0.184497 0.10543,0.421708 0.13178,0.685276 0.0264,0.263568 0.0395,0.566672 0.0395,0.882953 0,0.342639 -0.0395,0.711634 -0.11861,1.106986 -0.0791,0.395352 -0.21085,0.764347 -0.36899,1.106985 -0.15814,0.342639 -0.369,0.632564 -0.60621,0.869775 -0.25039,0.237211 -0.54031,0.342638 -0.85659,0.342638 -0.22404,0 -0.46125,-0.06589 -0.69846,-0.197676 -0.25039,-0.131784 -0.44807,-0.32946 -0.60621,-0.566671 z m -1.05427,-3.887628 v 5.508571 c 0,0.131784 -0.0132,0.276747 -0.0132,0.461244 0,0.184498 -0.0132,0.368996 -0.0264,0.553493 -0.0132,0.197676 -0.0264,0.382174 -0.0395,0.566671 -0.0264,0.184498 -0.0395,0.32946 -0.0527,0.461244 h 1.18605 v -2.741107 c 0.0527,0.02636 0.11861,0.05271 0.19768,0.07907 0.0791,0.02636 0.15814,0.05271 0.26357,0.07907 0.0922,0.02636 0.1845,0.03954 0.28992,0.05271 0.0923,0.02636 0.1845,0.02636 0.27675,0.02636 0.39535,0 0.7907,-0.07907 1.19923,-0.237211 0.39536,-0.158141 0.76435,-0.395352 1.09381,-0.724812 0.31628,-0.316282 0.57985,-0.724812 0.7907,-1.225591 0.19768,-0.500779 0.30311,-1.093807 0.30311,-1.779084 0,-0.527136 -0.0527,-0.975202 -0.13179,-1.344197 -0.0791,-0.368995 -0.19767,-0.65892 -0.32946,-0.896131 -0.13178,-0.224033 -0.28992,-0.382174 -0.47442,-0.487601 -0.1845,-0.105427 -0.38217,-0.158141 -0.59303,-0.158141 -0.34264,0 -0.65892,0.07907 -0.94884,0.210855 -0.3031,0.144962 -0.57985,0.32946 -0.83024,0.540314 -0.26357,0.224033 -0.4876,0.461244 -0.68528,0.724812 -0.19767,0.263568 -0.35581,0.527136 -0.4876,0.764347 l -0.0264,-0.01318 c 0.0527,-0.316282 0.0922,-0.645742 0.11861,-0.98838 0.0264,-0.342639 0.0395,-0.606207 0.0395,-0.817061 0,-0.131784 -0.0264,-0.224033 -0.0659,-0.303103 -0.0527,-0.07907 -0.14496,-0.118606 -0.27674,-0.118606 -0.21086,0 -0.43489,0.03954 -0.6721,0.105427 -0.23721,0.06589 -0.47442,0.131784 -0.68528,0.210855 -0.26357,0.105427 -0.51396,0.210854 -0.76435,0.316281 l 0.0527,0.263568 c 0.0791,-0.01318 0.1845,-0.02636 0.31628,-0.03954 0.13178,-0.01318 0.25039,-0.02636 0.38217,-0.02636 0.25039,0 0.40853,0.09225 0.4876,0.276747 0.0659,0.184497 0.10543,0.421709 0.10543,0.698455 z"
             id="path708" /><path
             d="m 111.33044,40.469868 c 0,-0.131784 -0.0264,-0.224033 -0.0659,-0.303103 -0.0527,-0.07907 -0.14496,-0.118606 -0.27674,-0.118606 -0.13179,0 -0.27675,0.02636 -0.44807,0.06589 -0.1845,0.03953 -0.36899,0.09225 -0.55349,0.144963 -0.19768,0.06589 -0.39535,0.131784 -0.57985,0.210854 -0.19768,0.07907 -0.369,0.144962 -0.51396,0.210854 l 0.0527,0.263568 c 0.0791,-0.01318 0.18449,-0.02636 0.31628,-0.03954 0.13178,-0.01318 0.25039,-0.02636 0.38217,-0.02636 0.13178,0 0.25039,0.03954 0.32946,0.09225 0.0791,0.05271 0.14496,0.131784 0.1845,0.237211 0.0264,0.105428 0.0527,0.237212 0.0659,0.382174 0,0.144962 0.0132,0.303103 0.0132,0.461244 v 5.429501 c 0,0.144962 -0.0132,0.303103 -0.0132,0.461244 0,0.171319 -0.0132,0.342638 -0.0264,0.513958 -0.0132,0.184497 -0.0264,0.355816 -0.0395,0.513957 -0.0132,0.158141 -0.0264,0.303103 -0.0527,0.434887 h 1.18606 v -7.366725 c 0,-0.25039 0,-0.50078 0.0132,-0.751169 0.0132,-0.25039 0.0264,-0.527136 0.0264,-0.817061 z"
             id="path710" /><path
             d="m 118.07775,45.451303 c 0,-0.06589 0.0132,-0.131784 0.0132,-0.184497 V 45.06913 c 0,-0.289925 -0.0527,-0.566672 -0.13178,-0.856596 -0.0791,-0.276747 -0.21086,-0.527136 -0.39536,-0.764348 -0.18449,-0.224032 -0.43488,-0.40853 -0.73799,-0.553492 -0.31628,-0.131784 -0.68527,-0.210855 -1.13334,-0.210855 -0.55349,0 -1.01474,0.118606 -1.38373,0.32946 -0.38217,0.224033 -0.69846,0.500779 -0.93567,0.843418 -0.23721,0.342638 -0.42171,0.73799 -0.52713,1.159699 -0.10543,0.434887 -0.15814,0.856596 -0.15814,1.278305 0,0.487601 0.0527,0.922488 0.15814,1.31784 0.10542,0.395352 0.27674,0.73799 0.51395,1.027915 0.22404,0.289925 0.51396,0.500779 0.88296,0.65892 0.35581,0.158141 0.77752,0.237211 1.2783,0.237211 0.42171,0 0.86978,-0.09225 1.33102,-0.276746 0.46124,-0.184498 0.88295,-0.448066 1.27831,-0.790704 l -0.17132,-0.303103 c -0.39536,0.237211 -0.76435,0.40853 -1.10699,0.527136 -0.34264,0.118605 -0.71163,0.171319 -1.12016,0.171319 -0.34264,0 -0.61939,-0.07907 -0.8566,-0.237211 -0.23721,-0.158141 -0.43489,-0.368996 -0.57985,-0.632564 -0.15814,-0.263568 -0.26357,-0.553492 -0.34264,-0.896131 -0.0791,-0.32946 -0.10542,-0.672098 -0.10542,-1.041093 0,-0.09225 0,-0.184498 0,-0.263568 0,-0.07907 0.0132,-0.158141 0.0264,-0.263568 0.21086,0 0.50078,0 0.8566,-0.01318 0.35581,0 0.73799,-0.01318 1.13334,-0.01318 0.39535,0 0.7907,-0.01318 1.18606,-0.02636 0.39535,0 0.73799,-0.01318 1.02791,-0.02636 z m -1.89769,-0.395352 h -2.26668 c 0.0263,-0.210854 0.0659,-0.448065 0.13178,-0.685277 0.0659,-0.237211 0.17132,-0.448065 0.3031,-0.65892 0.13179,-0.197676 0.28993,-0.368995 0.50078,-0.500779 0.19768,-0.131784 0.44807,-0.197676 0.73799,-0.197676 0.21086,0 0.40853,0.05271 0.57985,0.131784 0.17132,0.07907 0.31629,0.197676 0.43489,0.32946 0.11861,0.131784 0.21086,0.289925 0.27675,0.461244 0.0527,0.184498 0.0923,0.355817 0.0923,0.540315 0,0.131784 -0.0132,0.237211 -0.0264,0.316281 -0.0264,0.07907 -0.0659,0.144963 -0.11861,0.184498 -0.0527,0.03954 -0.13178,0.06589 -0.23721,0.06589 -0.10542,0.01318 -0.25039,0.01318 -0.40853,0.01318 z"
             id="path712" /><path
             d="m 119.3165,43.158262 h 0.31628 c 0.0264,-0.197676 0.0659,-0.408531 0.11861,-0.645742 0.0395,-0.237211 0.0791,-0.461244 0.1186,-0.698455 0.0395,-0.224033 0.0791,-0.448066 0.10543,-0.65892 0.0264,-0.210855 0.0395,-0.395352 0.0395,-0.553493 0,-0.224033 -0.0395,-0.368995 -0.10543,-0.448066 -0.0791,-0.07907 -0.21086,-0.118605 -0.40853,-0.118605 -0.22403,0 -0.38217,0.05271 -0.46125,0.144962 -0.0791,0.105427 -0.1186,0.276747 -0.1186,0.527136 0,0.184498 0.0132,0.382174 0.0395,0.606207 0.0264,0.224032 0.0659,0.448065 0.11861,0.672098 0.0395,0.237211 0.0791,0.448066 0.13178,0.65892 0.0395,0.210854 0.0791,0.382174 0.10543,0.513958 z"
             id="path714" /><path
             d="m 123.3359,49.536607 c 0.32946,0 0.64574,-0.03953 0.94884,-0.144962 0.30311,-0.09225 0.56668,-0.224033 0.80389,-0.40853 0.23721,-0.184498 0.42171,-0.395352 0.56667,-0.658921 0.13178,-0.263568 0.21085,-0.553492 0.21085,-0.869774 0,-0.395352 -0.0923,-0.724812 -0.27674,-0.962023 -0.1845,-0.237211 -0.42171,-0.421709 -0.68528,-0.566671 -0.27675,-0.144963 -0.57985,-0.263568 -0.89613,-0.355817 -0.32946,-0.09225 -0.63256,-0.197676 -0.89613,-0.303103 -0.27675,-0.105428 -0.50078,-0.237212 -0.68528,-0.395352 -0.1845,-0.158141 -0.27675,-0.368996 -0.27675,-0.65892 0,-0.32946 0.0923,-0.619385 0.30311,-0.856596 0.21085,-0.237212 0.4876,-0.355817 0.84341,-0.355817 0.21086,0 0.39536,0.05271 0.5535,0.144962 0.15814,0.105427 0.28992,0.224033 0.39535,0.382174 0.10543,0.158141 0.19768,0.342638 0.26357,0.553493 0.0659,0.210854 0.1186,0.421708 0.17132,0.632563 0.26356,-0.01318 0.46124,-0.09225 0.59302,-0.25039 0.11861,-0.158141 0.1845,-0.32946 0.1845,-0.527136 0,-0.184497 -0.0659,-0.342638 -0.17132,-0.500779 -0.1186,-0.158141 -0.27674,-0.289925 -0.46124,-0.395352 -0.1845,-0.105427 -0.40853,-0.197676 -0.64574,-0.263568 -0.23721,-0.05271 -0.4876,-0.09225 -0.73799,-0.09225 -0.369,0 -0.69846,0.05271 -0.98838,0.144963 -0.28993,0.105427 -0.54032,0.237211 -0.73799,0.40853 -0.19768,0.171319 -0.34264,0.368995 -0.44807,0.606206 -0.10543,0.237212 -0.15814,0.50078 -0.15814,0.764348 0,0.382173 0.0922,0.685276 0.27675,0.896131 0.18449,0.224033 0.40853,0.40853 0.68527,0.540314 0.26357,0.131784 0.56667,0.25039 0.89613,0.32946 0.31629,0.07907 0.61939,0.171319 0.89614,0.276747 0.26356,0.105427 0.50078,0.250389 0.68527,0.40853 0.1845,0.158141 0.27675,0.382174 0.27675,0.672098 0,0.421709 -0.10543,0.764348 -0.31628,1.027916 -0.21086,0.276746 -0.5535,0.40853 -1.02792,0.40853 -0.4876,0 -0.89613,-0.171319 -1.21241,-0.527136 -0.32946,-0.342638 -0.55349,-0.830239 -0.65892,-1.449624 -0.23721,0.07907 -0.40853,0.184498 -0.54031,0.32946 -0.13179,0.158141 -0.19768,0.342638 -0.19768,0.553493 0,0.184497 0.0395,0.355817 0.1186,0.527136 0.0791,0.184498 0.22404,0.342638 0.42171,0.474422 0.1845,0.144963 0.43489,0.263568 0.75117,0.342639 0.31628,0.07907 0.69846,0.118605 1.17288,0.118605 z"
             id="path716" /></g></g><g
         id="g22154"
         transform="translate(-60.518334,-15.512809)"><text
           xml:space="preserve"
           style="font-size:13.1784px;line-height:1.3;font-family:NinfaW00-Regular;-inkscape-font-specification:'NinfaW00-Regular, Normal';fill:#213653;fill-opacity:1;fill-rule:evenodd;stroke:#213653;stroke-width:1;stroke-linecap:round;stroke-linejoin:round;stroke-dasharray:none;stroke-opacity:1;paint-order:stroke fill markers"
           x="80.382851"
           y="69.961327"
           id="text22098"
           transform="scale(0.99607139,1.0039441)"><tspan
             sodipodi:role="line"
             id="tspan22096"
             style="fill:#213653;fill-opacity:1;stroke:#213653;stroke-width:1;stroke-dasharray:none;stroke-opacity:1;paint-order:stroke fill markers"
             x="80.382851"
             y="69.961327">Suite</tspan></text><text
           xml:space="preserve"
           style="font-size:13.1784px;line-height:1.3;font-family:NinfaW00-Regular;-inkscape-font-specification:'NinfaW00-Regular, Normal';fill:#f1f6ef;fill-opacity:1;fill-rule:evenodd;stroke:#213653;stroke-width:0.8;stroke-linecap:round;stroke-linejoin:round;stroke-dasharray:none;stroke-opacity:1;paint-order:stroke fill markers"
           x="80.124092"
           y="69.532562"
           id="text22042"
           transform="scale(0.99607139,1.0039441)"><tspan
             sodipodi:role="line"
             id="tspan22040"
             style="stroke:#213653;stroke-width:0.8;stroke-dasharray:none;stroke-opacity:1;paint-order:stroke fill markers"
             x="80.124092"
             y="69.532562">Suite</tspan></text><text
           xml:space="preserve"
           style="font-size:13.1784px;line-height:1.3;font-family:NinfaW00-Regular;-inkscape-font-specification:'NinfaW00-Regular, Normal';fill:#213653;fill-opacity:1;fill-rule:evenodd;stroke:#213653;stroke-width:1;stroke-linecap:round;stroke-linejoin:round;stroke-dasharray:none;stroke-opacity:1;paint-order:stroke fill markers"
           x="-34.836559"
           y="8.7348509"
           id="text679"
           transform="scale(0.99607139,1.0039441)"><tspan
             sodipodi:role="line"
             id="tspan677"
             style="fill:#213653;fill-opacity:1;stroke:#213653;stroke-width:1;stroke-dasharray:none;stroke-opacity:1;paint-order:stroke fill markers"
             x="-34.836559"
             y="8.7348509">Suite</tspan></text><text
           xml:space="preserve"
           style="font-size:13.1784px;line-height:1.3;font-family:NinfaW00-Regular;-inkscape-font-specification:'NinfaW00-Regular, Normal';fill:#f1f6ef;fill-opacity:1;fill-rule:evenodd;stroke:#213653;stroke-width:0.8;stroke-linecap:round;stroke-linejoin:round;stroke-dasharray:none;stroke-opacity:1;paint-order:stroke fill markers"
           x="-35.095318"
           y="8.3060865"
           id="text683"
           transform="scale(0.99607139,1.0039441)"><tspan
             sodipodi:role="line"
             id="tspan681"
             style="stroke:#213653;stroke-width:0.8;stroke-dasharray:none;stroke-opacity:1;paint-order:stroke fill markers"
             x="-35.095318"
             y="8.3060865">Suite</tspan></text></g><g
         id="g675"
         transform="translate(-185.72286,-68.617605)"><text
           xml:space="preserve"
           style="font-size:13.1784px;line-height:1.3;font-family:NinfaW00-Regular;-inkscape-font-specification:'NinfaW00-Regular, Normal';fill:#213653;fill-opacity:1;fill-rule:evenodd;stroke:#213653;stroke-width:1;stroke-linecap:round;stroke-linejoin:round;stroke-dasharray:none;stroke-opacity:1;paint-order:stroke fill markers"
           x="80.194626"
           y="49.882298"
           id="text669"
           transform="scale(0.99607139,1.0039441)"><tspan
             sodipodi:role="line"
             id="tspan667"
             style="fill:#213653;fill-opacity:1;stroke:#213653;stroke-width:1;stroke-dasharray:none;stroke-opacity:1;paint-order:stroke fill markers"
             x="80.194626"
             y="49.882298">Couple's</tspan></text><text
           xml:space="preserve"
           style="font-size:13.1784px;line-height:1.3;font-family:NinfaW00-Regular;-inkscape-font-specification:'NinfaW00-Regular, Normal';fill:#f1f6ef;fill-opacity:1;fill-rule:evenodd;stroke:#213653;stroke-width:0.8;stroke-linecap:round;stroke-linejoin:round;stroke-dasharray:none;stroke-opacity:1;paint-order:stroke fill markers"
           x="80.124092"
           y="49.404823"
           id="text673"
           transform="scale(0.99607139,1.0039441)"><tspan
             sodipodi:role="line"
             id="tspan671"
             style="stroke:#213653;stroke-width:0.8;stroke-dasharray:none;stroke-opacity:1;paint-order:stroke fill markers"
             x="80.124092"
             y="49.404823">Couple's</tspan></text></g></g></g></svg>
