<?xml version="1.0" encoding="UTF-8" standalone="no"?>
<!-- Created with Inkscape (http://www.inkscape.org/) -->

<svg
   width="63.999989mm"
   height="88mm"
   viewBox="0 0 63.999988 88.000002"
   version="1.1"
   id="svg5"
   xml:space="preserve"
   inkscape:version="1.2.2 (b0a8486, 2022-12-01)"
   sodipodi:docname="COUPLES SUITE.svg"
   inkscape:export-filename="COUPLES SUITE.png"
   inkscape:export-xdpi="96"
   inkscape:export-ydpi="96"
   xmlns:inkscape="http://www.inkscape.org/namespaces/inkscape"
   xmlns:sodipodi="http://sodipodi.sourceforge.net/DTD/sodipodi-0.dtd"
   xmlns="http://www.w3.org/2000/svg"
   xmlns:svg="http://www.w3.org/2000/svg"><sodipodi:namedview
     id="namedview7"
     pagecolor="#ffffff"
     bordercolor="#000000"
     borderopacity="0.25"
     inkscape:showpageshadow="2"
     inkscape:pageopacity="0.0"
     inkscape:pagecheckerboard="0"
     inkscape:deskcolor="#d1d1d1"
     inkscape:document-units="mm"
     showgrid="true"
     showguides="false"
     inkscape:zoom="0.88544882"
     inkscape:cx="1358.0683"
     inkscape:cy="1342.2571"
     inkscape:window-width="1440"
     inkscape:window-height="847"
     inkscape:window-x="0"
     inkscape:window-y="25"
     inkscape:window-maximized="1"
     inkscape:current-layer="g1945"><inkscape:grid
       type="xygrid"
       id="grid236"
       originx="0"
       originy="0"
       units="mm"
       spacingx="2"
       spacingy="2" /></sodipodi:namedview><defs
     id="defs2" /><g
     inkscape:label="Layer 1"
     inkscape:groupmode="layer"
     id="layer1"
     transform="translate(-213.99999)"><path
       id="rect20130"
       style="fill:#f1f6ef;fill-rule:evenodd;stroke-width:4.99999;stroke-linecap:round;stroke-linejoin:round;paint-order:fill markers stroke"
       d="m 214,0 h 64 v 88 h -64 z" /><path
       id="rect19075"
       style="fill:#213653;fill-rule:evenodd;stroke-width:4.99999;stroke-linecap:round;stroke-linejoin:round;paint-order:fill markers stroke"
       d="m 214,0 h 64 v 20 h -64 z" /><g
       aria-label="Question"
       id="text21644"
       style="font-size:11.0292px;line-height:1.3;font-family:NinfaW00-Regular;-inkscape-font-specification:'NinfaW00-Regular, Normal';fill:#f1f6ef;fill-rule:evenodd;stroke-width:4.99998;stroke-linecap:round;stroke-linejoin:round;paint-order:fill markers stroke"><path
         d="m 226.11993,9.3217041 c 0,-0.3749928 0.0331,-0.772044 0.12132,-1.1911536 0.0882,-0.4191096 0.22059,-0.7941023 0.39705,-1.1470367 0.17647,-0.3419052 0.39705,-0.6286644 0.67278,-0.8492484 0.27573,-0.220584 0.60661,-0.3419052 0.99263,-0.3419052 0.37499,0 0.69484,0.099263 0.97057,0.2867592 0.27573,0.1874964 0.50734,0.441168 0.69484,0.7610148 0.17647,0.330876 0.31985,0.7058687 0.40808,1.1249783 0.0882,0.4301388 0.13235,0.882336 0.13235,1.3565916 0,0.386022 -0.0441,0.7830729 -0.13235,1.1801239 -0.0882,0.408081 -0.23161,0.772044 -0.40808,1.10292 -0.17647,0.330876 -0.40808,0.606606 -0.68381,0.816161 -0.27573,0.220584 -0.60661,0.319847 -0.9816,0.319847 -0.38602,0 -0.7169,-0.0772 -0.99263,-0.253672 -0.27573,-0.165438 -0.49631,-0.397051 -0.67278,-0.705868 -0.17646,-0.297789 -0.30882,-0.661752 -0.39705,-1.080862 -0.0882,-0.41911 -0.12132,-0.8713067 -0.12132,-1.3786499 z m 2.69112,3.6727239 c 0.43014,-0.0772 0.81617,-0.231614 1.15807,-0.463227 0.33088,-0.231613 0.61764,-0.518372 0.84925,-0.871307 0.23161,-0.352934 0.40808,-0.749985 0.5294,-1.191153 0.12132,-0.441168 0.1875,-0.9154237 0.1875,-1.4227669 0,-0.6286644 -0.0772,-1.1690952 -0.20956,-1.6212923 -0.14338,-0.4521972 -0.3419,-0.82719 -0.6066,-1.1139492 -0.2647,-0.2867592 -0.59558,-0.5073432 -0.97057,-0.6396936 -0.38603,-0.1323504 -0.81616,-0.2095548 -1.29042,-0.2095548 -0.55146,0 -1.02572,0.099263 -1.44482,0.2977884 -0.41911,0.1985256 -0.77205,0.4742556 -1.05881,0.82719 -0.28676,0.3639636 -0.49631,0.7941024 -0.63969,1.3014455 -0.15441,0.5073432 -0.22059,1.0808616 -0.22059,1.6984968 0,0.6396931 0.0662,1.1801241 0.22059,1.6212921 0.14338,0.441168 0.35293,0.805132 0.63969,1.080862 0.28676,0.286759 0.62867,0.485285 1.03675,0.606606 0.39705,0.13235 0.86027,0.187496 1.37865,0.187496 0.11029,0.220584 0.24264,0.430139 0.39705,0.639694 0.15441,0.209555 0.30882,0.397051 0.48528,0.573518 0.16544,0.176467 0.33088,0.308818 0.50735,0.41911 0.16543,0.110292 0.33087,0.154408 0.48528,0.154408 0.15441,0 0.29779,-0.04412 0.43014,-0.154408 0.13235,-0.110292 0.24264,-0.231614 0.3419,-0.386022 0.0993,-0.14338 0.1875,-0.286759 0.25368,-0.441168 0.0662,-0.154409 0.13235,-0.27573 0.17646,-0.374993 l -0.14338,-0.09926 c -0.11029,0.09926 -0.24264,0.198526 -0.37499,0.286759 -0.14338,0.09926 -0.33088,0.14338 -0.56249,0.14338 -0.22058,0 -0.44117,-0.06617 -0.68381,-0.209555 -0.24264,-0.143379 -0.5294,-0.352934 -0.87131,-0.639693 z"
         style="stroke-width:5"
         id="path1704" /><path
         d="M 237.11604,11.395194 V 8.7261273 c 0,-0.2536716 0,-0.4742556 0.011,-0.6727812 0.011,-0.1874964 0.0331,-0.386022 0.0662,-0.6066059 h -0.95954 v 2.4374531 c 0,0.3529347 -0.0662,0.6838107 -0.17647,0.9815987 -0.11029,0.297788 -0.25367,0.55146 -0.43013,0.761015 -0.17647,0.220584 -0.36397,0.386022 -0.57352,0.507343 -0.22059,0.121321 -0.41911,0.176467 -0.61764,0.176467 -0.24264,0 -0.39705,-0.06618 -0.47425,-0.220584 -0.0882,-0.143379 -0.12133,-0.374993 -0.12133,-0.68381 0,-0.529402 0.011,-1.091891 0.0551,-1.6874677 0.0441,-0.5955768 0.0662,-1.1470368 0.0662,-1.6764384 0,-0.4191096 -0.20956,-0.6286643 -0.61764,-0.6286643 -0.12132,0 -0.25367,0.033088 -0.38602,0.077204 -0.13235,0.044117 -0.2647,0.099263 -0.39705,0.165438 -0.13235,0.066175 -0.24264,0.1213212 -0.35294,0.1874964 -0.11029,0.066175 -0.18749,0.110292 -0.23161,0.1433796 l 0.0772,0.2095548 c 0.0331,0 0.0993,-0.011029 0.19853,-0.033088 0.0993,-0.011029 0.19853,-0.022058 0.30882,-0.022058 0.19852,0 0.31984,0.077204 0.38602,0.2095548 0.0662,0.1323504 0.0993,0.3749928 0.0993,0.7058688 0,0.1985256 -0.011,0.4191096 -0.0221,0.661752 -0.011,0.2536716 -0.0221,0.518373 -0.0331,0.783073 l -0.0331,0.805132 c -0.011,0.264701 -0.011,0.518372 -0.011,0.738956 0,0.319847 0.0662,0.573519 0.19853,0.749986 0.13235,0.187496 0.35293,0.27573 0.66175,0.27573 0.24264,0 0.47425,-0.04412 0.7169,-0.154409 0.24264,-0.110292 0.46322,-0.242642 0.68381,-0.419109 0.22058,-0.176468 0.41911,-0.374993 0.6066,-0.595577 0.17647,-0.220584 0.34191,-0.463227 0.47426,-0.705869 l 0.0221,0.01103 c -0.0331,0.27573 -0.0551,0.507343 -0.0662,0.683811 -0.0221,0.187496 -0.0221,0.374992 -0.0221,0.573518 0,0.06617 0,0.13235 0.0221,0.198526 0.011,0.06618 0.0331,0.13235 0.0772,0.198525 0.0441,0.06618 0.0993,0.110292 0.1875,0.154409 0.0772,0.04412 0.1875,0.05515 0.31985,0.05515 0.22058,0 0.4522,-0.05515 0.70587,-0.176467 0.25367,-0.110292 0.48528,-0.242643 0.70587,-0.397051 l -0.0772,-0.209555 c -0.0441,0.01103 -0.11029,0.02206 -0.20955,0.03309 -0.1103,0.02206 -0.20956,0.02206 -0.30882,0.02206 -0.13235,0 -0.23161,-0.02206 -0.29779,-0.06617 -0.0662,-0.04412 -0.12132,-0.09926 -0.15441,-0.187497 -0.0441,-0.0772 -0.0662,-0.176467 -0.0662,-0.297788 -0.011,-0.110292 -0.011,-0.242643 -0.011,-0.397051 z"
         style="stroke-width:5"
         id="path1706" /><path
         d="m 243.24826,9.6525801 c 0,-0.055146 0.011,-0.110292 0.011,-0.1544088 v -0.165438 c 0,-0.2426424 -0.0441,-0.4742556 -0.11029,-0.716898 -0.0662,-0.2316132 -0.17647,-0.441168 -0.33088,-0.6396936 -0.15441,-0.1874964 -0.36396,-0.3419052 -0.61763,-0.4632264 -0.2647,-0.1102919 -0.57352,-0.1764671 -0.94851,-0.1764671 -0.46323,0 -0.84925,0.099263 -1.15807,0.2757299 -0.31985,0.1874964 -0.58455,0.4191096 -0.78307,0.7058688 -0.19853,0.2867592 -0.35294,0.6176352 -0.44117,0.9705696 -0.0882,0.3639636 -0.13235,0.7168975 -0.13235,1.0698325 0,0.40808 0.0441,0.772044 0.13235,1.10292 0.0882,0.330876 0.23161,0.617635 0.43014,0.860277 0.18749,0.242643 0.43014,0.41911 0.73895,0.55146 0.29779,0.132351 0.65073,0.198526 1.06984,0.198526 0.35293,0 0.72792,-0.0772 1.11394,-0.231613 0.38603,-0.154409 0.73896,-0.374993 1.06984,-0.661752 L 243.149,11.924595 c -0.33088,0.198526 -0.6397,0.341905 -0.92646,0.441168 -0.28675,0.09926 -0.59557,0.14338 -0.93748,0.14338 -0.28676,0 -0.51837,-0.06617 -0.7169,-0.198526 -0.19852,-0.13235 -0.36396,-0.308817 -0.48528,-0.529401 -0.13235,-0.220584 -0.22058,-0.463227 -0.28676,-0.749986 -0.0662,-0.27573 -0.0882,-0.562489 -0.0882,-0.871307 0,-0.0772 0,-0.154409 0,-0.2205837 0,-0.066175 0.011,-0.1323504 0.0221,-0.220584 0.17646,0 0.41911,0 0.71689,-0.011029 0.29779,0 0.61764,-0.011029 0.94851,-0.011029 0.33088,0 0.66176,-0.011029 0.99263,-0.022058 0.33088,0 0.61764,-0.011029 0.86028,-0.022058 z m -1.5882,-0.330876 h -1.89703 c 0.0221,-0.1764672 0.0552,-0.3749928 0.1103,-0.5735184 0.0551,-0.1985256 0.14337,-0.3749928 0.25367,-0.55146 0.11029,-0.165438 0.24264,-0.3088176 0.41911,-0.4191096 0.16543,-0.110292 0.37499,-0.165438 0.61763,-0.165438 0.17647,0 0.34191,0.044117 0.48529,0.110292 0.14338,0.066175 0.2647,0.165438 0.36396,0.27573 0.0993,0.110292 0.17647,0.2426424 0.23161,0.386022 0.0441,0.1544088 0.0772,0.2977884 0.0772,0.4521972 0,0.110292 -0.011,0.1985256 -0.0221,0.2647008 -0.0221,0.066175 -0.0551,0.1213212 -0.0993,0.1544088 -0.0441,0.033088 -0.1103,0.055146 -0.19853,0.055146 -0.0882,0.011029 -0.20955,0.011029 -0.3419,0.011029 z"
         style="stroke-width:5"
         id="path1708" /><path
         d="m 246.18201,13.071632 c 0.27573,0 0.54043,-0.03309 0.7941,-0.121321 0.25367,-0.0772 0.47425,-0.187497 0.67278,-0.341905 0.19853,-0.154409 0.35293,-0.330876 0.47426,-0.55146 0.11029,-0.220584 0.17646,-0.463227 0.17646,-0.727928 0,-0.330876 -0.0772,-0.606606 -0.23161,-0.805131 -0.15441,-0.198526 -0.35294,-0.352935 -0.57352,-0.474256 -0.23161,-0.1213209 -0.48528,-0.2205837 -0.74998,-0.2977881 -0.27573,-0.077204 -0.52941,-0.165438 -0.74999,-0.2536716 -0.23161,-0.088234 -0.41911,-0.1985256 -0.57352,-0.330876 -0.15441,-0.1323504 -0.23161,-0.3088176 -0.23161,-0.55146 0,-0.27573 0.0772,-0.5183724 0.25367,-0.716898 0.17647,-0.1985256 0.40808,-0.2977884 0.70587,-0.2977884 0.17647,0 0.33087,0.044117 0.46322,0.1213212 0.13236,0.088234 0.24265,0.1874964 0.33088,0.3198468 0.0882,0.1323504 0.16544,0.2867592 0.22058,0.4632264 0.0551,0.1764672 0.0993,0.3529344 0.14338,0.5294016 0.22059,-0.011029 0.38603,-0.077204 0.49632,-0.2095548 0.0993,-0.1323504 0.15441,-0.27573 0.15441,-0.441168 0,-0.1544088 -0.0551,-0.2867592 -0.14338,-0.4191096 -0.0993,-0.1323504 -0.23162,-0.2426424 -0.38602,-0.330876 -0.15441,-0.088234 -0.34191,-0.165438 -0.54044,-0.2205839 -0.19852,-0.044117 -0.40808,-0.077204 -0.61763,-0.077204 -0.30882,0 -0.58455,0.044117 -0.82719,0.1213212 -0.24264,0.088234 -0.4522,0.1985255 -0.61764,0.3419051 -0.16543,0.1433796 -0.28675,0.3088176 -0.37499,0.5073432 -0.0882,0.1985256 -0.13235,0.4191096 -0.13235,0.6396936 0,0.3198468 0.0772,0.5735184 0.23161,0.7499856 0.15441,0.1874964 0.34191,0.3419047 0.57352,0.4521967 0.22059,0.110292 0.47426,0.209555 0.74999,0.27573 0.2647,0.06618 0.51837,0.14338 0.74998,0.231613 0.22059,0.08823 0.41911,0.209555 0.57352,0.341905 0.15441,0.132351 0.23162,0.319847 0.23162,0.56249 0,0.352934 -0.0882,0.639693 -0.26471,0.860277 -0.17646,0.231613 -0.46322,0.341905 -0.86027,0.341905 -0.40808,0 -0.74999,-0.143379 -1.01469,-0.441168 -0.27573,-0.286759 -0.46323,-0.694839 -0.55146,-1.213212 -0.19852,0.06618 -0.3419,0.154409 -0.4522,0.27573 -0.11029,0.132351 -0.16543,0.28676 -0.16543,0.463227 0,0.154409 0.0331,0.297788 0.0993,0.441168 0.0662,0.154409 0.1875,0.286759 0.35293,0.397051 0.15441,0.121321 0.36397,0.220584 0.62867,0.286759 0.2647,0.06617 0.58455,0.09926 0.9816,0.09926 z"
         style="stroke-width:5"
         id="path1710" /><path
         d="m 250.53852,13.071632 c 0.15441,0 0.30882,-0.02206 0.47426,-0.0772 0.16543,-0.05515 0.31984,-0.121322 0.46322,-0.187497 0.15441,-0.0772 0.31985,-0.165438 0.48529,-0.264701 l -0.0772,-0.220584 c -0.0441,0.01103 -0.0882,0.02206 -0.15441,0.02206 -0.0662,0.01103 -0.14338,0.02206 -0.20955,0.02206 -0.0772,0 -0.14338,0.01103 -0.20956,0.01103 -0.0662,0 -0.11029,0 -0.13235,0 -0.24264,0 -0.44116,-0.03309 -0.57352,-0.110292 -0.14337,-0.0772 -0.20955,-0.253671 -0.20955,-0.54043 l 0.0441,-3.7940451 h 1.36762 v -0.386022 h -1.36762 l 0.0331,-1.3124747 -0.25367,-0.011029 -1.38968,1.4889419 0.0441,0.220584 h 0.66175 l -0.0662,3.9153659 c 0,0.165438 0.011,0.319847 0.0441,0.463226 0.0221,0.154409 0.0772,0.286759 0.16544,0.397051 0.0772,0.110292 0.1875,0.198526 0.31985,0.264701 0.13235,0.06617 0.31985,0.09926 0.54043,0.09926 z"
         style="stroke-width:5"
         id="path1712" /><path
         d="m 253.91343,7.6893825 c 0,-0.110292 -0.0221,-0.1874964 -0.0551,-0.2536715 -0.0441,-0.066175 -0.12132,-0.099263 -0.23161,-0.099263 -0.1103,0 -0.23162,0.022058 -0.375,0.055146 -0.15441,0.033088 -0.30882,0.077204 -0.46322,0.1213211 -0.16544,0.055146 -0.33088,0.110292 -0.48529,0.1764672 -0.16544,0.066175 -0.30882,0.1213212 -0.43014,0.1764672 l 0.0441,0.220584 c 0.0662,-0.011029 0.15441,-0.022058 0.2647,-0.033088 0.11029,-0.011029 0.20955,-0.022058 0.31985,-0.022058 0.11029,0 0.20955,0.033088 0.27573,0.077204 0.0662,0.044117 0.12132,0.110292 0.15441,0.1985256 0.0221,0.088234 0.0441,0.1985256 0.0551,0.3198468 0,0.1213212 0.011,0.2536716 0.011,0.386022 v 2.3381901 c 0,0.121321 -0.011,0.253671 -0.011,0.386022 0,0.143379 -0.011,0.286759 -0.0221,0.430139 -0.011,0.154408 -0.0221,0.297788 -0.0331,0.430138 -0.011,0.132351 -0.0221,0.253672 -0.0441,0.363964 h 0.99263 V 9.0018573 c 0,-0.2095548 0,-0.4191096 0.011,-0.6286644 0.011,-0.2095548 0.0221,-0.441168 0.0221,-0.6838104 z m 0.0662,-1.8970223 c 0,-0.1874964 -0.0551,-0.3419052 -0.16544,-0.4742556 -0.11029,-0.1213212 -0.25367,-0.1874964 -0.44117,-0.1874964 -0.0662,0 -0.13235,0.011029 -0.19852,0.033088 -0.0772,0.022058 -0.14338,0.066175 -0.20956,0.110292 -0.0662,0.055146 -0.13235,0.1213212 -0.17646,0.2095548 -0.0441,0.088234 -0.0662,0.1874964 -0.0662,0.2977884 0,0.1985256 0.0551,0.3529344 0.17647,0.4632264 0.12132,0.1213212 0.27573,0.1764672 0.47425,0.1764672 0.0551,0 0.12132,-0.011029 0.1875,-0.044117 0.0662,-0.022058 0.13235,-0.066175 0.19853,-0.1213212 0.0662,-0.055146 0.11029,-0.1213212 0.1544,-0.1985256 0.0441,-0.077204 0.0662,-0.165438 0.0662,-0.264701 z"
         style="stroke-width:5"
         id="path1714" /><path
         d="m 256.0972,10.20404 c 0,-0.2647007 0.0221,-0.5514599 0.0772,-0.8602775 0.0552,-0.3088176 0.14338,-0.5845476 0.2647,-0.8492484 0.1103,-0.2536716 0.26471,-0.4632264 0.46323,-0.6286644 0.1875,-0.165438 0.41911,-0.2536716 0.70587,-0.2536716 0.2647,0 0.49631,0.077204 0.69484,0.2095548 0.1875,0.1433796 0.3419,0.330876 0.46323,0.5735184 0.12132,0.2426424 0.20955,0.5183724 0.2647,0.82719 0.0551,0.3088176 0.0882,0.6396936 0.0882,0.9815987 0,0.286759 -0.0331,0.573518 -0.0882,0.871307 -0.0552,0.308817 -0.14338,0.584547 -0.25368,0.838219 -0.12132,0.253672 -0.27573,0.463226 -0.47425,0.628664 -0.19853,0.165438 -0.43014,0.242643 -0.69484,0.242643 -0.28676,0 -0.51837,-0.06617 -0.70587,-0.198526 -0.19852,-0.13235 -0.35293,-0.308817 -0.46323,-0.540431 -0.12132,-0.231613 -0.20955,-0.507343 -0.2647,-0.81616 -0.0551,-0.308818 -0.0772,-0.650723 -0.0772,-1.025716 z m 4.02566,-0.2205839 c 0,-0.4632264 -0.0662,-0.8602776 -0.17647,-1.1911536 -0.11029,-0.330876 -0.27573,-0.606606 -0.48529,-0.82719 -0.20955,-0.2095548 -0.46322,-0.3639636 -0.76101,-0.4742556 -0.29779,-0.099263 -0.62866,-0.1544087 -1.00366,-0.1544087 -0.38602,0 -0.73895,0.077204 -1.04777,0.2316131 -0.31985,0.1544088 -0.59558,0.3749928 -0.81616,0.6396936 -0.23161,0.27573 -0.40808,0.606606 -0.5294,0.9815988 -0.13235,0.3749928 -0.1875,0.7941024 -0.1875,1.2352703 0,0.926453 0.19853,1.599234 0.61764,2.018344 0.40808,0.419109 0.99262,0.628664 1.76467,0.628664 0.37499,0 0.72792,-0.0772 1.0588,-0.231613 0.31985,-0.154409 0.59558,-0.363964 0.82719,-0.639694 0.23161,-0.27573 0.40808,-0.606606 0.54043,-0.981599 0.13235,-0.374992 0.19853,-0.794102 0.19853,-1.2352699 z"
         style="stroke-width:5"
         id="path1716" /><path
         d="m 265.83597,11.428281 c 0,-0.187496 0,-0.40808 0.011,-0.661752 0.011,-0.242642 0.0221,-0.507343 0.0331,-0.7720437 0.011,-0.2647008 0.0221,-0.5294016 0.0331,-0.7941024 0.011,-0.2647008 0.0221,-0.5183724 0.0221,-0.7499856 0,-0.1323504 -0.0221,-0.27573 -0.0551,-0.4080804 -0.0331,-0.1323504 -0.0882,-0.2536716 -0.15441,-0.3639636 -0.0772,-0.099263 -0.16543,-0.1764672 -0.27573,-0.2426423 -0.11029,-0.066175 -0.24264,-0.099263 -0.39705,-0.099263 -0.2647,0 -0.5294,0.055146 -0.78307,0.1654379 -0.25367,0.110292 -0.49631,0.2426424 -0.7169,0.4191096 -0.22058,0.1764672 -0.43014,0.3749928 -0.61763,0.5955768 -0.1875,0.220584 -0.34191,0.4521972 -0.47426,0.6948396 l -0.0221,-0.011029 c 0.0441,-0.2647008 0.0662,-0.5404308 0.0882,-0.82719 0.011,-0.2867592 0.022,-0.5073432 0.022,-0.6838104 0,-0.110292 -0.022,-0.1874964 -0.0551,-0.2536715 -0.0441,-0.066175 -0.12132,-0.099263 -0.23161,-0.099263 -0.17647,0 -0.36397,0.033088 -0.56249,0.088234 -0.19853,0.055146 -0.38603,0.1102919 -0.56249,0.1764671 -0.20956,0.088234 -0.41911,0.1764672 -0.62867,0.2647008 l 0.0441,0.220584 c 0.0662,-0.011029 0.15441,-0.022058 0.2647,-0.033088 0.11029,-0.011029 0.20955,-0.022058 0.31985,-0.022058 0.11029,0 0.20955,0.033088 0.27573,0.077204 0.0662,0.044117 0.12132,0.110292 0.15441,0.1985256 0.022,0.088234 0.0441,0.1985256 0.0551,0.3198468 0,0.1213212 0.011,0.2536716 0.011,0.386022 v 2.4484827 c 0,0.242642 -0.011,0.496314 -0.0331,0.772044 -0.0221,0.27573 -0.0551,0.518372 -0.0772,0.727927 h 0.99263 v -2.34922 c 0,-0.397051 0.0551,-0.7499853 0.17646,-1.0588029 0.12132,-0.3088176 0.27573,-0.5735184 0.46323,-0.7941024 0.17647,-0.220584 0.38602,-0.386022 0.60661,-0.496314 0.22058,-0.110292 0.43013,-0.165438 0.62866,-0.165438 0.24264,0 0.40808,0.077204 0.50734,0.220584 0.0882,0.1544088 0.14338,0.3749928 0.14338,0.6838104 0,0.5294016 -0.0221,1.0918909 -0.0662,1.6764389 -0.0441,0.595576 -0.0551,1.180124 -0.0551,1.764672 0,0.419109 0.19853,0.628664 0.61764,0.628664 0.13235,0 0.2647,-0.02206 0.39705,-0.06617 0.13235,-0.04412 0.25367,-0.08823 0.37499,-0.154409 0.12132,-0.05515 0.23161,-0.121321 0.33088,-0.187496 0.0993,-0.06618 0.18749,-0.121322 0.2647,-0.165438 l -0.0772,-0.209555 c -0.0441,0.01103 -0.11029,0.02206 -0.22058,0.03309 -0.11029,0.02206 -0.22058,0.02206 -0.31985,0.02206 -0.19852,0 -0.33087,-0.0772 -0.37499,-0.231613 -0.0551,-0.154409 -0.0772,-0.374993 -0.0772,-0.683811 z"
         style="stroke-width:5"
         id="path1718" /></g></g></svg>
