<?xml version="1.0" encoding="UTF-8" standalone="no"?>
<!-- Created with Inkscape (http://www.inkscape.org/) -->

<svg
   width="64mm"
   height="88mm"
   viewBox="0 0 63.999999 88.000002"
   version="1.1"
   id="svg5"
   xml:space="preserve"
   inkscape:version="1.2.2 (b0a8486, 2022-12-01)"
   sodipodi:docname="COUPLES SUITE.svg"
   inkscape:export-filename="COUPLES SUITE.png"
   inkscape:export-xdpi="96"
   inkscape:export-ydpi="96"
   xmlns:inkscape="http://www.inkscape.org/namespaces/inkscape"
   xmlns:sodipodi="http://sodipodi.sourceforge.net/DTD/sodipodi-0.dtd"
   xmlns="http://www.w3.org/2000/svg"
   xmlns:svg="http://www.w3.org/2000/svg"><sodipodi:namedview
     id="namedview7"
     pagecolor="#ffffff"
     bordercolor="#000000"
     borderopacity="0.25"
     inkscape:showpageshadow="2"
     inkscape:pageopacity="0.0"
     inkscape:pagecheckerboard="0"
     inkscape:deskcolor="#d1d1d1"
     inkscape:document-units="mm"
     showgrid="true"
     showguides="false"
     inkscape:zoom="0.88544882"
     inkscape:cx="1358.0683"
     inkscape:cy="1342.2571"
     inkscape:window-width="1440"
     inkscape:window-height="847"
     inkscape:window-x="0"
     inkscape:window-y="25"
     inkscape:window-maximized="1"
     inkscape:current-layer="g1945"><inkscape:grid
       type="xygrid"
       id="grid236"
       originx="0"
       originy="0"
       units="mm"
       spacingx="2"
       spacingy="2" /></sodipodi:namedview><defs
     id="defs2" /><g
     inkscape:label="Layer 1"
     inkscape:groupmode="layer"
     id="layer1"
     transform="translate(-287.99998)"><path
       id="rect21584"
       style="fill:#f1f6ef;fill-rule:evenodd;stroke-width:4.99999;stroke-linecap:round;stroke-linejoin:round;paint-order:fill markers stroke"
       d="m 288,0 h 64 v 88 h -64 z" /><path
       id="rect19081"
       style="fill:#b1d7da;fill-rule:evenodd;stroke-width:4.99999;stroke-linecap:round;stroke-linejoin:round;paint-order:fill markers stroke"
       d="m 288,0 h 64 v 20 h -64 z" /><g
       aria-label="Scenario"
       id="text19775"
       style="font-size:11.0292px;line-height:1.3;font-family:NinfaW00-Regular;-inkscape-font-specification:'NinfaW00-Regular, Normal';fill-rule:evenodd;stroke-width:4.99998;stroke-linecap:round;stroke-linejoin:round;paint-order:fill markers stroke"><path
         d="m 301.40901,14 c 0.36397,0 0.70587,-0.04412 1.02572,-0.154409 0.31984,-0.09926 0.59557,-0.242643 0.83822,-0.41911 0.23161,-0.176467 0.41911,-0.397051 0.55146,-0.650723 0.13235,-0.253671 0.19852,-0.54043 0.19852,-0.849248 0,-0.41911 -0.0993,-0.761015 -0.29779,-1.036745 -0.19852,-0.264701 -0.45219,-0.496314 -0.74998,-0.68381 -0.30882,-0.187496 -0.62867,-0.3529345 -0.97057,-0.4852849 -0.35294,-0.1323504 -0.67278,-0.2647008 -0.97057,-0.4080804 -0.30882,-0.1433796 -0.55146,-0.3088176 -0.74999,-0.5073432 -0.19852,-0.1874963 -0.29778,-0.4301387 -0.29778,-0.7279271 0,-0.1764672 0.0331,-0.3529344 0.0993,-0.5183724 0.0662,-0.165438 0.15441,-0.3088176 0.28676,-0.441168 0.12132,-0.1323504 0.27573,-0.2316132 0.45219,-0.3088176 0.17647,-0.077204 0.375,-0.1213212 0.59558,-0.1213212 0.23161,0 0.44117,0.055146 0.61764,0.1544088 0.17646,0.099263 0.31984,0.2316132 0.45219,0.3970512 0.12133,0.1764672 0.22059,0.3639636 0.29779,0.5845476 0.0772,0.220584 0.14338,0.4632264 0.1875,0.7058688 0.25367,0 0.43014,-0.066175 0.54043,-0.1985256 0.11029,-0.1323504 0.16544,-0.2977884 0.16544,-0.496314 0,-0.1544088 -0.0552,-0.3088176 -0.15441,-0.4852848 -0.0993,-0.1764672 -0.24264,-0.330876 -0.43014,-0.4742556 -0.1875,-0.1323504 -0.41911,-0.2536716 -0.68381,-0.3419052 -0.2647,-0.088234 -0.57352,-0.1433796 -0.90439,-0.1433796 -0.39706,0 -0.73896,0.055146 -1.03675,0.165438 -0.30882,0.110292 -0.56249,0.2647008 -0.76101,0.441168 -0.19853,0.1764672 -0.35294,0.386022 -0.4522,0.6176352 -0.11029,0.2316132 -0.15441,0.4632264 -0.15441,0.7058688 0,0.3970512 0.0882,0.7279271 0.28676,0.9705695 0.19852,0.2426424 0.44117,0.4521972 0.73896,0.6176352 0.28675,0.1764675 0.6066,0.3198465 0.95954,0.4411675 0.3419,0.132351 0.66175,0.264701 0.95954,0.408081 0.28676,0.143379 0.5294,0.319847 0.72792,0.518372 0.19853,0.198526 0.29779,0.463227 0.29779,0.772044 0,0.231613 -0.0441,0.441168 -0.12132,0.639694 -0.0772,0.198525 -0.1875,0.374993 -0.33088,0.518372 -0.14338,0.14338 -0.31984,0.253672 -0.51837,0.341905 -0.19852,0.08823 -0.43014,0.121322 -0.67278,0.121322 -0.59558,0 -1.03674,-0.176468 -1.33453,-0.55146 -0.30882,-0.374993 -0.47426,-0.904395 -0.51837,-1.599234 -0.15441,0.04412 -0.27573,0.09926 -0.36397,0.165438 -0.0993,0.0772 -0.17647,0.165438 -0.23161,0.253671 -0.0662,0.08823 -0.11029,0.187497 -0.13235,0.286759 -0.0221,0.110292 -0.0331,0.209555 -0.0331,0.297789 0,0.209555 0.0441,0.40808 0.15441,0.584547 0.11029,0.176468 0.2647,0.330876 0.48528,0.463227 0.20956,0.13235 0.47426,0.242642 0.80514,0.319847 0.31981,0.0772 0.70583,0.110292 1.147,0.110292 z"
         style="stroke-width:5"
         id="path1670" /><path
         d="m 308.54488,10.161838 c 0.24264,0 0.41911,-0.05515 0.54043,-0.1874963 0.12132,-0.1323504 0.1875,-0.27573 0.1875,-0.441168 0,-0.1544088 -0.0441,-0.2977884 -0.12132,-0.4521972 -0.0772,-0.1544088 -0.1875,-0.2867591 -0.34191,-0.4080803 -0.15441,-0.1213212 -0.35293,-0.220584 -0.59557,-0.2977884 -0.24265,-0.066175 -0.51838,-0.110292 -0.83822,-0.110292 -0.44117,0 -0.81616,0.099263 -1.12498,0.2867592 -0.30882,0.1985256 -0.56249,0.4411679 -0.76102,0.7389563 -0.19852,0.2977884 -0.3419,0.6286644 -0.43014,0.9926277 -0.0882,0.363964 -0.13235,0.716898 -0.13235,1.069833 0,0.40808 0.0441,0.772044 0.13235,1.09189 0.0882,0.330876 0.23162,0.606606 0.41911,0.83822 0.1875,0.231613 0.43014,0.40808 0.7169,0.529401 0.28676,0.132351 0.6397,0.187497 1.03675,0.187497 0.41911,0 0.80513,-0.0772 1.15806,-0.242643 0.35294,-0.165438 0.69484,-0.374993 1.03675,-0.617635 l -0.14338,-0.264701 c -0.2647,0.154409 -0.5294,0.286759 -0.81616,0.397051 -0.28676,0.110292 -0.57352,0.165438 -0.87131,0.165438 -0.2647,0 -0.49631,-0.03309 -0.69484,-0.110292 -0.20955,-0.06617 -0.38602,-0.187496 -0.5294,-0.363963 -0.15441,-0.176467 -0.2647,-0.397051 -0.34191,-0.672781 -0.0882,-0.27573 -0.12132,-0.617636 -0.12132,-1.025716 0,-0.397051 0.0221,-0.761015 0.0772,-1.091891 0.0551,-0.3308757 0.14338,-0.6286641 0.2647,-0.8713065 0.11029,-0.2426424 0.2647,-0.4301388 0.44117,-0.5624891 0.17646,-0.1323504 0.39705,-0.1985256 0.65072,-0.1985256 0.19852,0 0.36396,0.055146 0.50734,0.1433796 0.14338,0.099263 0.2647,0.2205839 0.36397,0.3749927 0.0882,0.1544088 0.16543,0.330876 0.22058,0.5183724 0.0441,0.1985256 0.0882,0.386022 0.11029,0.5845475 z"
         style="stroke-width:5"
         id="path1672" /><path
         d="m 314.71019,10.580948 c 0,-0.05515 0.011,-0.110292 0.011,-0.154409 v -0.165438 c 0,-0.242642 -0.0441,-0.4742557 -0.11029,-0.7168981 -0.0662,-0.2316132 -0.17647,-0.441168 -0.33088,-0.6396936 -0.15441,-0.1874963 -0.36396,-0.3419051 -0.61763,-0.4632263 -0.26471,-0.110292 -0.57352,-0.1764672 -0.94852,-0.1764672 -0.46322,0 -0.84924,0.099263 -1.15806,0.27573 -0.31985,0.1874964 -0.58455,0.4191095 -0.78307,0.7058687 -0.19853,0.2867592 -0.35294,0.6176352 -0.44117,0.9705695 -0.0882,0.363964 -0.13235,0.716898 -0.13235,1.069832 0,0.408081 0.0441,0.772044 0.13235,1.10292 0.0882,0.330876 0.23161,0.617636 0.43014,0.860278 0.18749,0.242642 0.43014,0.41911 0.73895,0.55146 0.29779,0.13235 0.65073,0.198526 1.06983,0.198526 0.35294,0 0.72793,-0.0772 1.11395,-0.231614 0.38603,-0.154408 0.73896,-0.374992 1.06984,-0.661752 l -0.14338,-0.253671 c -0.33088,0.198525 -0.6397,0.341905 -0.92646,0.441168 -0.28676,0.09926 -0.59557,0.143379 -0.93748,0.143379 -0.28676,0 -0.51837,-0.06617 -0.7169,-0.198525 -0.19852,-0.132351 -0.36396,-0.308818 -0.48528,-0.529402 -0.13235,-0.220584 -0.22058,-0.463226 -0.28676,-0.749985 -0.0662,-0.27573 -0.0882,-0.56249 -0.0882,-0.871307 0,-0.0772 0,-0.154409 0,-0.220584 0,-0.06617 0.011,-0.132351 0.0221,-0.220584 0.17646,0 0.4191,0 0.71689,-0.01103 0.29779,0 0.61764,-0.01103 0.94851,-0.01103 0.33088,0 0.66176,-0.01103 0.99263,-0.02206 0.33088,0 0.61764,-0.01103 0.86028,-0.02206 z m -1.58821,-0.330876 h -1.89702 c 0.0221,-0.176467 0.0551,-0.3749931 0.11029,-0.5735187 0.0552,-0.1985256 0.14338,-0.3749928 0.25368,-0.55146 0.11029,-0.165438 0.24264,-0.3088176 0.41911,-0.4191095 0.16543,-0.110292 0.37499,-0.165438 0.61763,-0.165438 0.17647,0 0.34191,0.044117 0.48529,0.110292 0.14338,0.066175 0.2647,0.1654379 0.36396,0.2757299 0.0993,0.110292 0.17647,0.2426424 0.23161,0.386022 0.0441,0.1544088 0.0772,0.2977884 0.0772,0.4521972 0,0.110292 -0.011,0.1985256 -0.0221,0.2647011 -0.0221,0.06617 -0.0552,0.121321 -0.0993,0.154408 -0.0441,0.03309 -0.1103,0.05515 -0.19853,0.05515 -0.0882,0.01103 -0.20955,0.01103 -0.34191,0.01103 z"
         style="stroke-width:5"
         id="path1674" /><path
         d="m 320.52255,12.356649 c 0,-0.187497 0,-0.408081 0.011,-0.661752 0.011,-0.242643 0.0221,-0.507343 0.0331,-0.772044 0.011,-0.264701 0.0221,-0.529402 0.0331,-0.794102 0.011,-0.2647013 0.0221,-0.5183729 0.0221,-0.7499861 0,-0.1323504 -0.0221,-0.27573 -0.0551,-0.4080804 -0.0331,-0.1323504 -0.0882,-0.2536715 -0.15441,-0.3639635 -0.0772,-0.099263 -0.16544,-0.1764672 -0.27573,-0.2426424 -0.1103,-0.066175 -0.24265,-0.099263 -0.39705,-0.099263 -0.26471,0 -0.52941,0.055146 -0.78308,0.165438 -0.25367,0.110292 -0.49631,0.2426424 -0.7169,0.4191095 -0.22058,0.1764672 -0.43013,0.3749928 -0.61763,0.5955768 -0.1875,0.220584 -0.34191,0.4521972 -0.47426,0.6948401 l -0.0221,-0.01103 c 0.0441,-0.2647015 0.0662,-0.5404315 0.0882,-0.8271907 0.011,-0.2867592 0.0221,-0.5073431 0.0221,-0.6838103 0,-0.110292 -0.0221,-0.1874964 -0.0552,-0.2536716 -0.0441,-0.066175 -0.12132,-0.099263 -0.23161,-0.099263 -0.17647,0 -0.36397,0.033088 -0.56249,0.088234 -0.19853,0.055146 -0.38602,0.110292 -0.56249,0.1764672 -0.20956,0.088234 -0.41911,0.1764672 -0.62867,0.2647008 l 0.0441,0.2205839 c 0.0662,-0.011029 0.15441,-0.022058 0.2647,-0.033088 0.11029,-0.011029 0.20956,-0.022058 0.31985,-0.022058 0.11029,0 0.20955,0.033088 0.27573,0.077204 0.0662,0.044117 0.12132,0.110292 0.15441,0.1985256 0.0221,0.088234 0.0441,0.1985256 0.0551,0.3198468 0,0.1213212 0.011,0.2536716 0.011,0.386022 v 2.4484823 c 0,0.242643 -0.011,0.496314 -0.0331,0.772044 -0.0221,0.27573 -0.0551,0.518373 -0.0772,0.727928 h 0.99263 v -2.34922 c 0,-0.397051 0.0551,-0.749986 0.17647,-1.058803 0.12132,-0.308818 0.27573,-0.5735189 0.46322,-0.7941029 0.17647,-0.220584 0.38602,-0.386022 0.60661,-0.496314 0.22058,-0.110292 0.43014,-0.165438 0.62866,-0.165438 0.24265,0 0.40808,0.077204 0.50735,0.220584 0.0882,0.1544088 0.14338,0.3749928 0.14338,0.6838104 0,0.5294015 -0.0221,1.0918915 -0.0662,1.6764385 -0.0441,0.595577 -0.0551,1.180125 -0.0551,1.764672 0,0.41911 0.19853,0.628665 0.61764,0.628665 0.13235,0 0.2647,-0.02206 0.39705,-0.06618 0.13235,-0.04412 0.25367,-0.08823 0.37499,-0.154408 0.12133,-0.05515 0.23162,-0.121322 0.33088,-0.187497 0.0993,-0.06618 0.1875,-0.121321 0.2647,-0.165438 l -0.0772,-0.209555 c -0.0441,0.01103 -0.1103,0.02206 -0.22059,0.03309 -0.11029,0.02206 -0.22058,0.02206 -0.31984,0.02206 -0.19853,0 -0.33088,-0.0772 -0.375,-0.231613 -0.0551,-0.154409 -0.0772,-0.374993 -0.0772,-0.68381 z"
         style="stroke-width:5"
         id="path1676" /><path
         d="m 325.44153,11.264758 c -0.022,0.220584 -0.0772,0.441168 -0.18749,0.672781 -0.11029,0.242643 -0.24264,0.452197 -0.41911,0.650723 -0.17647,0.198526 -0.36396,0.352934 -0.58455,0.474256 -0.22058,0.13235 -0.44117,0.187496 -0.68381,0.187496 -0.17647,0 -0.30882,-0.04412 -0.40808,-0.14338 -0.0993,-0.09926 -0.14338,-0.231613 -0.14338,-0.40808 0,-0.220584 0.0662,-0.41911 0.20956,-0.595577 0.14338,-0.176467 0.33087,-0.319847 0.56248,-0.452197 0.23162,-0.121321 0.49632,-0.220584 0.78308,-0.286759 0.28676,-0.06617 0.58455,-0.09926 0.8713,-0.09926 z m -0.90439,-2.9999422 c -0.25367,0 -0.50734,0.033088 -0.74999,0.099263 -0.24264,0.066175 -0.46322,0.1544088 -0.66175,0.27573 -0.19852,0.1213212 -0.35293,0.2647007 -0.47425,0.4411679 -0.12132,0.1764672 -0.17647,0.3749928 -0.17647,0.5955768 0,0.1544088 0.0441,0.2977884 0.15441,0.4191095 0.11029,0.121321 0.30882,0.176467 0.61763,0.176467 0.0221,-0.231613 0.0662,-0.4521969 0.12133,-0.6617517 0.0551,-0.2095548 0.13235,-0.3970512 0.23161,-0.55146 0.0882,-0.1544088 0.20955,-0.2867591 0.36396,-0.3749927 0.15441,-0.088234 0.34191,-0.1433796 0.57352,-0.1433796 0.17647,0 0.31985,0.044117 0.43014,0.1323504 0.11029,0.088234 0.20955,0.2095547 0.28676,0.3529343 0.0662,0.1433796 0.12132,0.3088176 0.15441,0.496314 0.0221,0.1874964 0.0441,0.3749928 0.0441,0.5735183 v 0.749985 c -0.17646,0.04412 -0.37499,0.0772 -0.6066,0.121322 -0.23162,0.04412 -0.47426,0.110292 -0.7169,0.176467 -0.25367,0.06617 -0.49631,0.154409 -0.73896,0.242642 -0.24264,0.09926 -0.46322,0.220584 -0.66175,0.352935 -0.19852,0.143379 -0.35293,0.308817 -0.47425,0.496314 -0.12133,0.187496 -0.17647,0.397051 -0.17647,0.639693 0,0.363964 0.0993,0.639694 0.31985,0.838219 0.22058,0.198526 0.48528,0.28676 0.80513,0.28676 0.24264,0 0.47425,-0.04412 0.69484,-0.154409 0.22058,-0.110292 0.44116,-0.242643 0.63969,-0.41911 0.19853,-0.176467 0.37499,-0.374993 0.54043,-0.595577 0.16544,-0.220584 0.31985,-0.441168 0.4522,-0.68381 l 0.0221,0.01103 c -0.0221,0.264701 -0.0441,0.496314 -0.0662,0.69484 -0.0221,0.198525 -0.0331,0.374993 -0.0331,0.529401 0,0.06618 0,0.14338 0.011,0.209555 0,0.06617 0.0221,0.132351 0.0662,0.198526 0.0441,0.06617 0.0993,0.110292 0.17647,0.154409 0.0772,0.04412 0.18749,0.05515 0.33087,0.05515 0.22059,0 0.4522,-0.05515 0.7169,-0.176468 0.25367,-0.110292 0.48528,-0.242642 0.70587,-0.397051 l -0.0772,-0.209555 c -0.0441,0.01103 -0.11029,0.02206 -0.22058,0.03309 -0.11029,0.02206 -0.20955,0.02206 -0.30882,0.02206 -0.13235,0 -0.23161,-0.02206 -0.29779,-0.0772 -0.0662,-0.04412 -0.12132,-0.121321 -0.1544,-0.209555 -0.0331,-0.08823 -0.0551,-0.187496 -0.0551,-0.319847 -0.011,-0.121321 -0.011,-0.253671 -0.011,-0.40808 0,-0.121321 0,-0.264701 0,-0.441168 0,-0.176467 0.011,-0.352934 0.011,-0.540431 0,-0.176467 0.011,-0.352934 0.011,-0.529401 0,-0.165438 0.011,-0.308818 0.011,-0.441168 0,-0.3749929 -0.0441,-0.6948397 -0.11029,-0.9595405 -0.0662,-0.2647008 -0.17647,-0.4742556 -0.31985,-0.6286643 -0.15441,-0.1544088 -0.34191,-0.27573 -0.57352,-0.3419052 -0.23161,-0.066175 -0.50734,-0.110292 -0.82719,-0.110292 z"
         style="stroke-width:5"
         id="path1678" /><path
         d="m 330.86788,8.2648158 c -0.1875,0 -0.35294,0.055146 -0.50735,0.165438 -0.15441,0.110292 -0.28676,0.2647008 -0.41911,0.4521971 -0.13235,0.1985256 -0.24264,0.4191096 -0.35293,0.6727812 -0.11029,0.2536716 -0.19853,0.5183729 -0.28676,0.8051319 l -0.0221,-0.01103 c 0.0221,-0.13235 0.0331,-0.275729 0.0551,-0.4411675 0.011,-0.165438 0.0221,-0.330876 0.0331,-0.496314 0.011,-0.1544088 0.0221,-0.3088176 0.0331,-0.4521972 0,-0.1323504 0.011,-0.2536715 0.011,-0.3419051 0,-0.110292 -0.0221,-0.1874964 -0.0551,-0.2536716 -0.0441,-0.066175 -0.12132,-0.099263 -0.23161,-0.099263 -0.17647,0 -0.36396,0.033088 -0.56249,0.088234 -0.19852,0.055146 -0.38602,0.110292 -0.56249,0.1764672 -0.20955,0.088234 -0.41911,0.1764672 -0.62866,0.2647008 l 0.0441,0.2205839 c 0.0662,-0.011029 0.1544,-0.022058 0.2647,-0.033088 0.11029,-0.011029 0.20955,-0.022058 0.31984,-0.022058 0.1103,0 0.20956,0.033088 0.27573,0.077204 0.0662,0.044117 0.12132,0.110292 0.15441,0.1985256 0.0221,0.088234 0.0441,0.1985256 0.0551,0.3198468 0,0.1213212 0.011,0.2536716 0.011,0.386022 V 12.61032 c 0,0.264701 -0.011,0.496314 -0.0221,0.69484 -0.011,0.198526 -0.0221,0.397051 -0.0331,0.584548 h 0.93748 v -2.34922 c 0,-0.297788 0.0331,-0.584548 0.0993,-0.871307 0.0662,-0.286759 0.16543,-0.529401 0.27573,-0.7499853 0.11029,-0.220584 0.24264,-0.386022 0.38602,-0.5183724 0.14338,-0.1323504 0.28676,-0.1985256 0.44117,-0.1985256 0.14338,0 0.2647,0.033088 0.37499,0.099263 0.0993,0.066175 0.19852,0.1433796 0.28676,0.2316132 0.0882,-0.099263 0.15441,-0.2095548 0.20955,-0.3198468 0.0551,-0.110292 0.0882,-0.2426424 0.0882,-0.386022 0,-0.1433795 -0.0552,-0.2757299 -0.16544,-0.3860219 -0.11029,-0.110292 -0.28676,-0.1764672 -0.50734,-0.1764672 z"
         style="stroke-width:5"
         id="path1680" /><path
         d="m 333.79059,8.6177502 c 0,-0.110292 -0.0221,-0.1874964 -0.0552,-0.2536716 -0.0441,-0.066175 -0.12132,-0.099263 -0.23161,-0.099263 -0.1103,0 -0.23162,0.022058 -0.375,0.055146 -0.15441,0.033088 -0.30881,0.077204 -0.46322,0.1213212 -0.16544,0.055146 -0.33088,0.110292 -0.48529,0.1764672 -0.16544,0.066175 -0.30881,0.1213212 -0.43014,0.1764672 l 0.0441,0.2205839 c 0.0662,-0.011029 0.15441,-0.022058 0.2647,-0.033088 0.11029,-0.011029 0.20956,-0.022058 0.31985,-0.022058 0.11029,0 0.20955,0.033088 0.27573,0.077204 0.0662,0.044117 0.12132,0.110292 0.15441,0.1985256 0.0221,0.088234 0.0441,0.1985256 0.0551,0.3198468 0,0.1213212 0.011,0.2536716 0.011,0.386022 v 2.3381895 c 0,0.121322 -0.011,0.253672 -0.011,0.386022 0,0.14338 -0.011,0.28676 -0.0221,0.430139 -0.011,0.154409 -0.022,0.297789 -0.0331,0.430139 -0.011,0.13235 -0.0221,0.253672 -0.0441,0.363964 h 0.99263 V 9.9302249 c 0,-0.2095548 0,-0.4191096 0.011,-0.6286644 0.011,-0.2095548 0.0221,-0.441168 0.0221,-0.6838103 z m 0.0662,-1.8970224 c 0,-0.1874964 -0.0552,-0.3419052 -0.16544,-0.4742556 -0.11029,-0.1213212 -0.25367,-0.1874964 -0.44117,-0.1874964 -0.0662,0 -0.13235,0.011029 -0.19852,0.033088 -0.0772,0.022058 -0.14338,0.066175 -0.20956,0.110292 -0.0662,0.055146 -0.13235,0.1213212 -0.17646,0.2095548 -0.0441,0.088234 -0.0662,0.1874964 -0.0662,0.2977884 0,0.1985256 0.0552,0.3529344 0.17647,0.4632264 0.12132,0.1213212 0.27573,0.1764672 0.47425,0.1764672 0.0551,0 0.12133,-0.011029 0.1875,-0.044117 0.0662,-0.022058 0.13235,-0.066175 0.19853,-0.1213212 0.0662,-0.055146 0.11029,-0.1213212 0.15441,-0.1985256 0.0441,-0.077204 0.0662,-0.165438 0.0662,-0.2647008 z"
         style="stroke-width:5"
         id="path1682" /><path
         d="m 335.97435,11.132408 c 0,-0.264701 0.0221,-0.55146 0.0772,-0.860278 0.0551,-0.3088175 0.14338,-0.5845475 0.26471,-0.8492483 0.11029,-0.2536716 0.2647,-0.4632264 0.46322,-0.6286643 0.1875,-0.165438 0.41911,-0.2536716 0.70587,-0.2536716 0.2647,0 0.49631,0.077204 0.69484,0.2095548 0.1875,0.1433795 0.34191,0.3308759 0.46323,0.5735183 0.12132,0.2426424 0.20955,0.5183724 0.2647,0.8271901 0.0551,0.308817 0.0882,0.639693 0.0882,0.981599 0,0.286759 -0.0331,0.573518 -0.0882,0.871306 -0.0551,0.308818 -0.14338,0.584548 -0.25367,0.83822 -0.12133,0.253671 -0.27573,0.463226 -0.47426,0.628664 -0.19853,0.165438 -0.43014,0.242642 -0.69484,0.242642 -0.28676,0 -0.51837,-0.06618 -0.70587,-0.198525 -0.19852,-0.132351 -0.35293,-0.308818 -0.46322,-0.540431 -0.12133,-0.231613 -0.20956,-0.507343 -0.26471,-0.816161 -0.0551,-0.308817 -0.0772,-0.650723 -0.0772,-1.025715 z m 4.02566,-0.220584 c 0,-0.463227 -0.0662,-0.860278 -0.17647,-1.1911539 -0.11029,-0.330876 -0.27573,-0.606606 -0.48528,-0.82719 -0.20956,-0.2095547 -0.46323,-0.3639635 -0.76102,-0.4742555 -0.29779,-0.099263 -0.62866,-0.1544088 -1.00366,-0.1544088 -0.38602,0 -0.73895,0.077204 -1.04777,0.2316132 -0.31985,0.1544088 -0.59558,0.3749927 -0.81616,0.6396935 -0.23161,0.27573 -0.40808,0.606606 -0.5294,0.9815985 -0.13235,0.374993 -0.1875,0.794103 -0.1875,1.235271 0,0.926452 0.19853,1.599234 0.61764,2.018343 0.40808,0.41911 0.99262,0.628665 1.76467,0.628665 0.37499,0 0.72793,-0.0772 1.0588,-0.231614 0.31985,-0.154408 0.59558,-0.363963 0.82719,-0.639693 0.23162,-0.27573 0.40808,-0.606606 0.54043,-0.981599 0.13235,-0.374993 0.19853,-0.794102 0.19853,-1.23527 z"
         style="stroke-width:5"
         id="path1684" /></g></g></svg>
