<?xml version="1.0" encoding="UTF-8" standalone="no"?>
<!-- Created with Inkscape (http://www.inkscape.org/) -->

<svg
   width="64mm"
   height="88mm"
   viewBox="0 0 63.999999 88.000002"
   version="1.1"
   id="svg5"
   xml:space="preserve"
   inkscape:version="1.2.2 (b0a8486, 2022-12-01)"
   sodipodi:docname="COUPLES SUITE.svg"
   inkscape:export-filename="COUPLES SUITE.png"
   inkscape:export-xdpi="96"
   inkscape:export-ydpi="96"
   xmlns:inkscape="http://www.inkscape.org/namespaces/inkscape"
   xmlns:sodipodi="http://sodipodi.sourceforge.net/DTD/sodipodi-0.dtd"
   xmlns="http://www.w3.org/2000/svg"
   xmlns:svg="http://www.w3.org/2000/svg"><sodipodi:namedview
     id="namedview7"
     pagecolor="#ffffff"
     bordercolor="#000000"
     borderopacity="0.25"
     inkscape:showpageshadow="2"
     inkscape:pageopacity="0.0"
     inkscape:pagecheckerboard="0"
     inkscape:deskcolor="#d1d1d1"
     inkscape:document-units="mm"
     showgrid="true"
     showguides="false"
     inkscape:zoom="0.88544882"
     inkscape:cx="1358.0683"
     inkscape:cy="1342.2571"
     inkscape:window-width="1440"
     inkscape:window-height="847"
     inkscape:window-x="0"
     inkscape:window-y="25"
     inkscape:window-maximized="1"
     inkscape:current-layer="g1945"><inkscape:grid
       type="xygrid"
       id="grid236"
       originx="0"
       originy="0"
       units="mm"
       spacingx="2"
       spacingy="2" /></sodipodi:namedview><defs
     id="defs2" /><g
     inkscape:label="Layer 1"
     inkscape:groupmode="layer"
     id="layer1"
     transform="translate(-361.99999)"><path
       id="rect21586"
       style="fill:#f1f6ef;fill-rule:evenodd;stroke-width:4.99999;stroke-linecap:round;stroke-linejoin:round;paint-order:fill markers stroke"
       d="m 362,0 h 64 v 88 h -64 z" /><path
       id="rect19083"
       style="fill-rule:evenodd;stroke-width:4.99999;stroke-linecap:round;stroke-linejoin:round;paint-order:fill markers stroke"
       d="m 362,0 h 64 v 20 h -64 z" /><g
       aria-label="Wildcard"
       id="text21590"
       style="font-size:11.0292px;line-height:1.3;font-family:NinfaW00-Regular;-inkscape-font-specification:'NinfaW00-Regular, Normal';fill:#f1f6ef;fill-rule:evenodd;stroke-width:4.99998;stroke-linecap:round;stroke-linejoin:round;paint-order:fill markers stroke"><path
         d="m 381.17862,9.5147153 -0.92645,3.2646427 h -0.0331 l -1.58821,-6.3087018 -1.01468,0.110292 c -0.0221,0.3088176 -0.0441,0.6396936 -0.0882,0.9705696 -0.0441,0.330876 -0.11029,0.6396936 -0.17646,0.9154236 l -1.00366,4.3124166 h -0.0331 L 374.7045,6.6471234 c -0.0221,-0.088234 -0.0662,-0.1544088 -0.13235,-0.2095548 -0.0662,-0.044117 -0.15441,-0.077204 -0.27573,-0.077204 -0.13235,0 -0.2647,0.011029 -0.41911,0.033088 -0.15441,0.022058 -0.30882,0.055146 -0.46323,0.088234 -0.15441,0.033088 -0.30881,0.066175 -0.45219,0.110292 -0.15441,0.044117 -0.27573,0.077204 -0.36397,0.099263 l 0.0662,0.2536716 c 0.19852,-0.033088 0.36396,-0.055146 0.48528,-0.055146 0.25367,0 0.43014,0.066175 0.54043,0.1764672 0.0993,0.1213212 0.17647,0.2867592 0.24265,0.4852848 l 1.72055,6.3087018 h 0.88234 l 1.47791,-6.0660594 1.53306,6.0660594 h 0.83822 l 1.45585,-4.7866723 c 0.0662,-0.220584 0.13235,-0.441168 0.19853,-0.6727811 0.0662,-0.2316132 0.12132,-0.4632264 0.17646,-0.6838104 0.0552,-0.220584 0.1103,-0.441168 0.15441,-0.661752 0.0441,-0.2095548 0.0662,-0.4080804 0.0882,-0.5845476 l -0.92646,-0.110292 V 6.680211 c 0,0.1985256 -0.011,0.4191096 -0.022,0.6507228 -0.0221,0.2426424 -0.0441,0.4852848 -0.0662,0.7279272 -0.0221,0.2536716 -0.0552,0.5073431 -0.0993,0.7499855 -0.0441,0.2426424 -0.0993,0.4852848 -0.16544,0.7058688 z"
         style="stroke-width:5"
         id="path1687" /><path
         d="m 384.60868,8.5882625 c 0,-0.1102919 -0.022,-0.1874963 -0.0551,-0.2536715 -0.0441,-0.066175 -0.12132,-0.099263 -0.23162,-0.099263 -0.11029,0 -0.23161,0.022058 -0.37499,0.055146 -0.15441,0.033088 -0.30882,0.077204 -0.46322,0.1213212 -0.16544,0.055146 -0.33088,0.1102919 -0.48529,0.1764671 -0.16544,0.066175 -0.30882,0.1213212 -0.43014,0.1764672 l 0.0441,0.220584 c 0.0662,-0.011029 0.15441,-0.022058 0.2647,-0.033088 0.11029,-0.011029 0.20955,-0.022058 0.31985,-0.022058 0.11029,0 0.20955,0.033088 0.27573,0.077204 0.0662,0.044117 0.12132,0.110292 0.15441,0.1985256 0.022,0.088234 0.0441,0.1985256 0.0551,0.3198468 0,0.1213212 0.011,0.2536716 0.011,0.386022 v 2.3381901 c 0,0.121321 -0.011,0.253671 -0.011,0.386022 0,0.143379 -0.011,0.286759 -0.0221,0.430139 -0.011,0.154408 -0.0221,0.297788 -0.0331,0.430138 -0.011,0.132351 -0.0221,0.253672 -0.0441,0.363964 h 0.99263 V 9.9007373 c 0,-0.2095548 0,-0.4191096 0.011,-0.6286644 0.011,-0.2095548 0.022,-0.441168 0.022,-0.6838104 z m 0.0662,-1.8970223 c 0,-0.1874964 -0.0552,-0.3419052 -0.16544,-0.4742556 -0.11029,-0.1213212 -0.25367,-0.1874964 -0.44117,-0.1874964 -0.0662,0 -0.13235,0.011029 -0.19852,0.033088 -0.0772,0.022058 -0.14338,0.066175 -0.20956,0.110292 -0.0662,0.055146 -0.13235,0.1213212 -0.17646,0.2095548 -0.0441,0.088234 -0.0662,0.1874964 -0.0662,0.2977884 0,0.1985256 0.0552,0.3529344 0.17647,0.4632264 0.12132,0.1213212 0.27573,0.1764672 0.47425,0.1764672 0.0552,0 0.12132,-0.011029 0.1875,-0.044117 0.0662,-0.022058 0.13235,-0.066175 0.19853,-0.1213212 0.0662,-0.055146 0.11029,-0.1213212 0.1544,-0.1985256 0.0441,-0.077204 0.0662,-0.165438 0.0662,-0.264701 z"
         style="stroke-width:5"
         id="path1689" /><path
         d="m 387.26669,6.3824226 c 0,-0.110292 -0.0221,-0.1874964 -0.0551,-0.2536716 -0.0441,-0.066175 -0.12133,-0.099263 -0.23162,-0.099263 -0.11029,0 -0.23161,0.022058 -0.37499,0.055146 -0.15441,0.033088 -0.30882,0.077204 -0.46323,0.1213212 -0.16543,0.055146 -0.33087,0.110292 -0.48528,0.1764672 -0.16544,0.066175 -0.30882,0.1213212 -0.43014,0.1764672 l 0.0441,0.220584 c 0.0662,-0.011029 0.15441,-0.022058 0.2647,-0.033088 0.11029,-0.011029 0.20955,-0.022058 0.31984,-0.022058 0.1103,0 0.20956,0.033088 0.27573,0.077204 0.0662,0.044117 0.12133,0.110292 0.15441,0.1985256 0.0221,0.088234 0.0441,0.1985256 0.0551,0.3198468 0,0.1213212 0.011,0.2536716 0.011,0.386022 v 4.54403 c 0,0.121321 -0.011,0.253671 -0.011,0.386022 0,0.143379 -0.011,0.286759 -0.0221,0.430139 -0.011,0.154408 -0.0221,0.297788 -0.0331,0.430138 -0.011,0.132351 -0.0221,0.253672 -0.0441,0.363964 h 0.99262 V 7.6948974 c 0,-0.2095548 0,-0.4191096 0.011,-0.6286644 0.011,-0.2095548 0.0221,-0.441168 0.0221,-0.6838104 z"
         style="stroke-width:5"
         id="path1691" /><path
         d="m 392.15261,9.1176641 v 1.5992339 c 0,0.363964 -0.0551,0.69484 -0.16544,1.003657 -0.11029,0.308818 -0.24264,0.573519 -0.41911,0.794103 -0.17647,0.220584 -0.37499,0.397051 -0.59558,0.518372 -0.22058,0.13235 -0.4522,0.187496 -0.68381,0.187496 -0.33087,0 -0.57352,-0.143379 -0.70587,-0.452197 -0.13235,-0.297788 -0.19852,-0.727927 -0.19852,-1.279387 0,-0.27573 0.0221,-0.584548 0.0882,-0.926453 0.0662,-0.341905 0.15441,-0.6617517 0.28676,-0.9595401 0.12132,-0.2977884 0.28676,-0.55146 0.48528,-0.7499856 0.19853,-0.1985256 0.43014,-0.3088176 0.70587,-0.3088176 0.17647,0 0.38603,0.055146 0.61764,0.1544088 0.22058,0.110292 0.41911,0.2426424 0.58455,0.4191096 z m 0.8713,3.1764099 V 8.1250362 l 0.0552,-1.7315844 c 0,-0.110292 -0.011,-0.1985256 -0.0552,-0.2647008 -0.0441,-0.066175 -0.12132,-0.099263 -0.23161,-0.099263 -0.0993,0 -0.22058,0.022058 -0.36396,0.055146 -0.15441,0.033088 -0.30882,0.077204 -0.46323,0.1213212 -0.16544,0.055146 -0.33088,0.110292 -0.48529,0.1764672 -0.1544,0.066175 -0.29778,0.1213212 -0.40808,0.1764672 l 0.0552,0.220584 c 0.0331,0 0.11029,-0.011029 0.24264,-0.033088 0.12132,-0.011029 0.23162,-0.022058 0.34191,-0.022058 0.12132,0 0.20955,0.033088 0.27573,0.088234 0.0662,0.066175 0.11029,0.1544088 0.13235,0.2867592 0.0221,0.1323504 0.0331,0.2977884 0.0331,0.5073432 v 0.7610148 c -0.14338,-0.044117 -0.29779,-0.077204 -0.46323,-0.099263 -0.17647,-0.022058 -0.33088,-0.033088 -0.47426,-0.033088 -0.33087,0 -0.67278,0.066175 -1.00365,0.1985256 -0.33088,0.1323503 -0.6397,0.3308759 -0.9044,0.5955767 -0.2647,0.2647008 -0.48528,0.606606 -0.65072,1.0146869 -0.17647,0.419109 -0.25367,0.904394 -0.25367,1.477913 0,0.452197 0.0331,0.82719 0.11029,1.136007 0.0772,0.308818 0.17647,0.562489 0.30882,0.761015 0.12132,0.198526 0.2647,0.330876 0.43014,0.41911 0.15441,0.08823 0.33087,0.13235 0.50734,0.13235 0.28676,0 0.55146,-0.06617 0.81616,-0.198526 0.25367,-0.13235 0.48529,-0.286759 0.70587,-0.485284 0.20955,-0.187497 0.39705,-0.386022 0.55146,-0.606606 0.15441,-0.220584 0.28676,-0.408081 0.37499,-0.584548 l 0.0331,0.01103 c -0.0221,0.154409 -0.0441,0.297789 -0.0551,0.408081 -0.011,0.110292 -0.0221,0.220584 -0.0221,0.308817 -0.011,0.09926 -0.0221,0.187497 -0.0221,0.27573 0,0.08823 0,0.187497 0,0.27573 0,0.176467 0.0331,0.319847 0.11029,0.430139 0.0772,0.110292 0.24264,0.165438 0.48528,0.165438 0.22059,0 0.4522,-0.05515 0.70587,-0.176467 0.25367,-0.110292 0.48529,-0.242643 0.70587,-0.397051 l -0.0772,-0.209555 c -0.0441,0.01103 -0.1103,0.02206 -0.20956,0.03309 -0.11029,0.02206 -0.20955,0.02206 -0.30882,0.02206 -0.13235,0 -0.23161,-0.02206 -0.29778,-0.06617 -0.0662,-0.04412 -0.12133,-0.09926 -0.15441,-0.187497 -0.0441,-0.0772 -0.0662,-0.176467 -0.0662,-0.297788 -0.011,-0.110292 -0.011,-0.242643 -0.011,-0.397051 z"
         style="stroke-width:5"
         id="path1693" /><path
         d="m 398.26276,10.13235 c 0.24264,0 0.41911,-0.05515 0.54043,-0.1874959 0.12132,-0.1323504 0.1875,-0.27573 0.1875,-0.441168 0,-0.1544088 -0.0441,-0.2977884 -0.12132,-0.4521972 -0.0772,-0.1544088 -0.1875,-0.2867592 -0.34191,-0.4080804 -0.15441,-0.1213212 -0.35293,-0.2205839 -0.59558,-0.2977883 -0.24264,-0.066175 -0.51837,-0.110292 -0.83821,-0.110292 -0.44117,0 -0.81617,0.099263 -1.12498,0.2867591 -0.30882,0.1985256 -0.56249,0.441168 -0.76102,0.7389564 -0.19852,0.2977884 -0.3419,0.6286644 -0.43014,0.9926283 -0.0882,0.363963 -0.13235,0.716898 -0.13235,1.069832 0,0.40808 0.0441,0.772044 0.13235,1.091891 0.0882,0.330876 0.23162,0.606606 0.41911,0.838219 0.1875,0.231613 0.43014,0.40808 0.7169,0.529402 0.28676,0.13235 0.63969,0.187496 1.03675,0.187496 0.41911,0 0.80513,-0.0772 1.15806,-0.242642 0.35294,-0.165438 0.69484,-0.374993 1.03675,-0.617636 l -0.14338,-0.2647 c -0.2647,0.154408 -0.5294,0.286759 -0.81616,0.397051 -0.28676,0.110292 -0.57352,0.165438 -0.87131,0.165438 -0.2647,0 -0.49631,-0.03309 -0.69484,-0.110292 -0.20955,-0.06618 -0.38602,-0.187497 -0.5294,-0.363964 -0.15441,-0.176467 -0.2647,-0.397051 -0.34191,-0.672781 -0.0882,-0.27573 -0.12132,-0.617635 -0.12132,-1.025716 0,-0.397051 0.0221,-0.761014 0.0772,-1.09189 0.0551,-0.3308763 0.14338,-0.6286647 0.2647,-0.8713071 0.11029,-0.2426424 0.2647,-0.4301388 0.44117,-0.5624892 0.17646,-0.1323504 0.39705,-0.1985256 0.65072,-0.1985256 0.19852,0 0.36396,0.055146 0.50734,0.1433796 0.14338,0.099263 0.2647,0.220584 0.36396,0.3749928 0.0882,0.1544088 0.16544,0.330876 0.22059,0.5183724 0.0441,0.1985256 0.0882,0.386022 0.11029,0.5845471 z"
         style="stroke-width:5"
         id="path1695" /><path
         d="m 403.28103,11.23527 c -0.0221,0.220584 -0.0772,0.441168 -0.18749,0.672782 -0.1103,0.242642 -0.24265,0.452197 -0.41911,0.650722 -0.17647,0.198526 -0.36397,0.352935 -0.58455,0.474256 -0.22058,0.13235 -0.44117,0.187496 -0.68381,0.187496 -0.17647,0 -0.30882,-0.04412 -0.40808,-0.143379 -0.0993,-0.09926 -0.14338,-0.231613 -0.14338,-0.408081 0,-0.220584 0.0662,-0.419109 0.20955,-0.595576 0.14338,-0.176468 0.33088,-0.319847 0.56249,-0.452198 0.23162,-0.121321 0.49632,-0.220584 0.78308,-0.286759 0.28676,-0.06618 0.58454,-0.09926 0.8713,-0.09926 z m -0.90439,-2.9999418 c -0.25367,0 -0.50734,0.033088 -0.74999,0.099263 -0.24264,0.066175 -0.46322,0.1544088 -0.66175,0.2757299 -0.19852,0.1213212 -0.35293,0.2647008 -0.47425,0.441168 -0.12133,0.1764672 -0.17647,0.3749928 -0.17647,0.5955768 0,0.1544088 0.0441,0.2977884 0.15441,0.4191091 0.11029,0.121321 0.30881,0.176467 0.61763,0.176467 0.0221,-0.231613 0.0662,-0.4521965 0.12132,-0.6617513 0.0552,-0.2095548 0.13235,-0.3970512 0.23162,-0.55146 0.0882,-0.1544088 0.20955,-0.2867592 0.36396,-0.3749928 0.15441,-0.088234 0.34191,-0.1433796 0.57352,-0.1433796 0.17647,0 0.31985,0.044117 0.43014,0.1323504 0.11029,0.088234 0.20955,0.2095548 0.28676,0.3529344 0.0662,0.1433796 0.12132,0.3088176 0.15441,0.496314 0.022,0.1874964 0.0441,0.3749928 0.0441,0.5735179 v 0.749986 c -0.17646,0.04412 -0.37499,0.0772 -0.6066,0.121321 -0.23162,0.04412 -0.47426,0.110292 -0.7169,0.176467 -0.25367,0.06617 -0.49632,0.154409 -0.73896,0.242643 -0.24264,0.09926 -0.46322,0.220584 -0.66175,0.352934 -0.19853,0.14338 -0.35293,0.308818 -0.47426,0.496314 -0.12132,0.187496 -0.17646,0.397051 -0.17646,0.639694 0,0.363963 0.0993,0.639693 0.31984,0.838219 0.22059,0.198525 0.48529,0.286759 0.80514,0.286759 0.24264,0 0.47425,-0.04412 0.69484,-0.154409 0.22058,-0.110292 0.44116,-0.242642 0.63969,-0.419109 0.19852,-0.176468 0.37499,-0.374993 0.54043,-0.595577 0.16544,-0.220584 0.31985,-0.441168 0.4522,-0.683811 l 0.0221,0.01103 c -0.0221,0.2647 -0.0441,0.496314 -0.0662,0.694839 -0.0221,0.198526 -0.0331,0.374993 -0.0331,0.529402 0,0.06618 0,0.143379 0.011,0.209555 0,0.06618 0.0221,0.13235 0.0662,0.198525 0.0441,0.06618 0.0993,0.110292 0.17646,0.154409 0.0772,0.04412 0.1875,0.05515 0.33088,0.05515 0.22058,0 0.4522,-0.05515 0.7169,-0.176467 0.25367,-0.110292 0.48528,-0.242643 0.70587,-0.397051 l -0.0772,-0.209555 c -0.0441,0.01103 -0.11029,0.02206 -0.22058,0.03309 -0.11029,0.02206 -0.20956,0.02206 -0.30882,0.02206 -0.13235,0 -0.23161,-0.02206 -0.29779,-0.0772 -0.0662,-0.04412 -0.12132,-0.121321 -0.15441,-0.209554 -0.0331,-0.08823 -0.0551,-0.187497 -0.0551,-0.319847 -0.011,-0.121321 -0.011,-0.253672 -0.011,-0.408081 0,-0.121321 0,-0.2647 0,-0.441168 0,-0.176467 0.011,-0.352934 0.011,-0.54043 0,-0.176468 0.011,-0.352935 0.011,-0.529402 0,-0.165438 0.011,-0.308818 0.011,-0.441168 0,-0.3749925 -0.0441,-0.6948393 -0.1103,-0.9595401 -0.0662,-0.2647008 -0.17646,-0.4742556 -0.31984,-0.6286644 -0.15441,-0.1544088 -0.34191,-0.2757299 -0.57352,-0.3419051 -0.23161,-0.066175 -0.50734,-0.110292 -0.82719,-0.110292 z"
         style="stroke-width:5"
         id="path1697" /><path
         d="m 408.70737,8.2353282 c -0.18749,0 -0.35293,0.055146 -0.50734,0.165438 -0.15441,0.1102919 -0.28676,0.2647007 -0.41911,0.4521971 -0.13235,0.1985256 -0.24264,0.4191096 -0.35293,0.6727812 -0.1103,0.2536716 -0.19853,0.5183725 -0.28676,0.8051315 l -0.0221,-0.01103 c 0.0221,-0.132351 0.0331,-0.27573 0.0552,-0.4411681 0.011,-0.165438 0.022,-0.330876 0.0331,-0.496314 0.011,-0.1544088 0.0221,-0.3088176 0.0331,-0.4521972 0,-0.1323504 0.011,-0.2536716 0.011,-0.3419052 0,-0.1102919 -0.0221,-0.1874963 -0.0552,-0.2536715 -0.0441,-0.066175 -0.12132,-0.099263 -0.23161,-0.099263 -0.17647,0 -0.36396,0.033088 -0.56249,0.088234 -0.19852,0.055146 -0.38602,0.110292 -0.56249,0.1764671 -0.20955,0.088234 -0.41911,0.1764672 -0.62866,0.2647008 l 0.0441,0.220584 c 0.0662,-0.011029 0.15441,-0.022058 0.26471,-0.033088 0.11029,-0.011029 0.20955,-0.022058 0.31984,-0.022058 0.11029,0 0.20956,0.033088 0.27573,0.077204 0.0662,0.044117 0.12132,0.110292 0.15441,0.1985256 0.0221,0.088234 0.0441,0.1985256 0.0551,0.3198468 0,0.1213212 0.011,0.2536716 0.011,0.386022 v 2.6690667 c 0,0.264701 -0.011,0.496314 -0.0221,0.694839 -0.011,0.198526 -0.0221,0.397052 -0.0331,0.584548 h 0.93748 V 11.511 c 0,-0.297788 0.0331,-0.584547 0.0993,-0.871306 0.0662,-0.28676 0.16544,-0.529402 0.27573,-0.7499859 0.1103,-0.220584 0.24265,-0.386022 0.38603,-0.5183724 0.14338,-0.1323504 0.28676,-0.1985256 0.44116,-0.1985256 0.14338,0 0.26471,0.033088 0.375,0.099263 0.0993,0.066175 0.19852,0.1433796 0.28676,0.2316132 0.0882,-0.099263 0.15441,-0.2095548 0.20955,-0.3198468 0.0551,-0.110292 0.0882,-0.2426424 0.0882,-0.386022 0,-0.1433796 -0.0551,-0.27573 -0.16543,-0.3860219 -0.1103,-0.110292 -0.28676,-0.1764672 -0.50735,-0.1764672 z"
         style="stroke-width:5"
         id="path1699" /><path
         d="m 413.40579,9.1176641 v 1.5992339 c 0,0.363964 -0.0552,0.69484 -0.16544,1.003657 -0.11029,0.308818 -0.24264,0.573519 -0.41911,0.794103 -0.17647,0.220584 -0.37499,0.397051 -0.59558,0.518372 -0.22058,0.13235 -0.45219,0.187496 -0.68381,0.187496 -0.33087,0 -0.57351,-0.143379 -0.70587,-0.452197 -0.13235,-0.297788 -0.19852,-0.727927 -0.19852,-1.279387 0,-0.27573 0.0221,-0.584548 0.0882,-0.926453 0.0662,-0.341905 0.15441,-0.6617517 0.28676,-0.9595401 0.12132,-0.2977884 0.28676,-0.55146 0.48529,-0.7499856 0.19852,-0.1985256 0.43014,-0.3088176 0.70587,-0.3088176 0.17646,0 0.38602,0.055146 0.61763,0.1544088 0.22058,0.110292 0.41911,0.2426424 0.58455,0.4191096 z m 0.87131,3.1764099 V 8.1250362 l 0.0551,-1.7315844 c 0,-0.110292 -0.011,-0.1985256 -0.0551,-0.2647008 -0.0441,-0.066175 -0.12133,-0.099263 -0.23162,-0.099263 -0.0993,0 -0.22058,0.022058 -0.36396,0.055146 -0.15441,0.033088 -0.30882,0.077204 -0.46323,0.1213212 -0.16544,0.055146 -0.33087,0.110292 -0.48528,0.1764672 -0.15441,0.066175 -0.29779,0.1213212 -0.40808,0.1764672 l 0.0551,0.220584 c 0.0331,0 0.11029,-0.011029 0.24265,-0.033088 0.12132,-0.011029 0.23161,-0.022058 0.3419,-0.022058 0.12132,0 0.20956,0.033088 0.27573,0.088234 0.0662,0.066175 0.11029,0.1544088 0.13235,0.2867592 0.0221,0.1323504 0.0331,0.2977884 0.0331,0.5073432 v 0.7610148 c -0.14338,-0.044117 -0.29779,-0.077204 -0.46323,-0.099263 -0.17647,-0.022058 -0.33087,-0.033088 -0.47425,-0.033088 -0.33088,0 -0.67278,0.066175 -1.00366,0.1985256 -0.33088,0.1323503 -0.63969,0.3308759 -0.9044,0.5955767 -0.2647,0.2647008 -0.48528,0.606606 -0.65072,1.0146869 -0.17646,0.419109 -0.25367,0.904394 -0.25367,1.477913 0,0.452197 0.0331,0.82719 0.11029,1.136007 0.0772,0.308818 0.17647,0.562489 0.30882,0.761015 0.12132,0.198526 0.2647,0.330876 0.43014,0.41911 0.15441,0.08823 0.33087,0.13235 0.50734,0.13235 0.28676,0 0.55146,-0.06617 0.81616,-0.198526 0.25367,-0.13235 0.48529,-0.286759 0.70587,-0.485284 0.20956,-0.187497 0.39705,-0.386022 0.55146,-0.606606 0.15441,-0.220584 0.28676,-0.408081 0.37499,-0.584548 l 0.0331,0.01103 c -0.0221,0.154409 -0.0441,0.297789 -0.0551,0.408081 -0.011,0.110292 -0.0221,0.220584 -0.0221,0.308817 -0.011,0.09926 -0.0221,0.187497 -0.0221,0.27573 0,0.08823 0,0.187497 0,0.27573 0,0.176467 0.0331,0.319847 0.11029,0.430139 0.0772,0.110292 0.24264,0.165438 0.48529,0.165438 0.22058,0 0.45219,-0.05515 0.70586,-0.176467 0.25368,-0.110292 0.48529,-0.242643 0.70587,-0.397051 l -0.0772,-0.209555 c -0.0441,0.01103 -0.11029,0.02206 -0.20956,0.03309 -0.11029,0.02206 -0.20955,0.02206 -0.30881,0.02206 -0.13235,0 -0.23162,-0.02206 -0.29779,-0.06617 -0.0662,-0.04412 -0.12132,-0.09926 -0.15441,-0.187497 -0.0441,-0.0772 -0.0662,-0.176467 -0.0662,-0.297788 -0.011,-0.110292 -0.011,-0.242643 -0.011,-0.397051 z"
         style="stroke-width:5"
         id="path1701" /></g></g></svg>
